<?xml version="1.0" encoding="utf-8"?>
<!-- Generator: Adobe Illustrator 27.5.0, SVG Export Plug-In . SVG Version: 6.00 Build 0)  -->
<svg version="1.1" id="_x2018_ëîé_x5F_1" xmlns="http://www.w3.org/2000/svg" xmlns:xlink="http://www.w3.org/1999/xlink"
	 x="0px" y="0px" viewBox="0 0 3200 2000" style="enable-background:new 0 0 3200 2000;" xml:space="preserve">
<rect x="0.028" y="0.071" style="fill:#FFFFFF;" width="3200" height="2000"/>
<g>
	<path style="fill:#DDE7FE;" d="M3038.353,1405.68c-7.471,33.454-17.531,66.699-29.581,99.448
		c-2.555,6.962-5.203,13.899-7.943,20.814c-23.255,58.825-52.569,115.881-84.357,169.652
		c-44.74,75.696-111.324,157.405-200.713,152.884l-2262.943-21.566c-46.186-0.439-89.156-23.948-114.215-62.745
		c-48.024-74.401-86.15-154.688-113.648-238.225c-2.278-6.915-4.487-13.853-6.614-20.814
		c-10.026-32.737-18.421-65.937-25.163-99.448c-32.622-162.263-26.192-331.613,24.145-490.337
		c12.026-37.952,26.516-75.569,48.903-108.734c66.249-98.142,190.097-142.153,308.163-165.153
		c118.054-22.978,241.809-32.217,348.531-86.601c57.842-29.487,108.283-71.198,154.607-116.088
		c42.358-41.051,81.709-85.04,117.685-131.56c25.082-32.437,48.868-66.481,80.553-92.857
		c44.543-37.073,101.946-56.535,159.603-66.364c266.382-45.423,523.167,98.13,789.965,146.721c2.313,0.416,4.614,0.821,6.927,1.226
		c24.296,4.267,48.672,7.747,73.152,10.188c37.952,3.793,76.355,5.134,114.446,8.072c2.313,0.173,4.626,0.358,6.927,0.555
		c37.628,3.1,74.898,7.991,111.047,18.548c110.099,32.17,201.845,118.979,238.282,225.412
		c18.549,54.164,23.324,111.949,39.514,166.831c44.67,151.485,171.999,269.389,218.058,420.469
		C3059.618,1231.113,3057.664,1319.16,3038.353,1405.68z"/>
	<g>
		<rect x="1761.48" y="892.132" style="fill:#C5DAFF;" width="121.359" height="647.051"/>
		<rect x="1990.554" y="1001.16" style="fill:#C5DAFF;" width="177.706" height="538.022"/>
		<path style="fill:#C5DAFF;" d="M2475.169,1079.38v429.32c-6.852,13.023-16.501,22.894-27.406,30.48h-89.703V1079.38H2475.169z"/>
		<rect x="1866.019" y="1104.069" style="fill:#C5DAFF;" width="202.857" height="435.113"/>
		<rect x="1651.485" y="1067.583" style="fill:#C5DAFF;" width="177.707" height="471.6"/>
		<rect x="1321.262" y="989.335" style="fill:#C5DAFF;" width="208.576" height="549.847"/>
		<polygon style="fill:#C5DAFF;" points="1680.449,892.132 1502.742,945.316 1502.742,1539.183 1680.449,1539.183 		"/>
		<g>
			<rect x="2164.576" y="959.968" style="fill:#C5DAFF;" width="248.223" height="579.215"/>
			<rect x="2205.451" y="919.523" style="fill:#C5DAFF;" width="166.473" height="94.289"/>
			<rect x="2244.979" y="853.718" style="fill:#C5DAFF;" width="87.419" height="83.735"/>
			<rect x="2281.004" y="775.967" style="fill:#C5DAFF;" width="15.367" height="93.484"/>
		</g>
		<rect x="2350.246" y="1133.322" style="fill:#FFFFFF;" width="24.666" height="40.38"/>
		<rect x="1599.103" y="948.872" style="fill:#FFFFFF;" width="24.666" height="40.379"/>
		<rect x="1438.152" y="1022.945" style="fill:#FFFFFF;" width="24.665" height="40.379"/>
		<rect x="2276.354" y="869.451" style="fill:#FFFFFF;" width="24.666" height="40.379"/>
		<rect x="2293.515" y="1056.87" style="fill:#FFFFFF;" width="24.665" height="40.379"/>
		<rect x="1740.937" y="1110.521" style="fill:#FFFFFF;" width="24.665" height="40.379"/>
	</g>
	<g>
		<rect x="1024.664" y="893.866" style="fill:#C5DAFF;" width="121.359" height="647.051"/>
		<rect x="1253.736" y="1044.275" style="fill:#C5DAFF;" width="177.707" height="496.642"/>
		<rect x="1129.201" y="1105.804" style="fill:#C5DAFF;" width="202.857" height="435.113"/>
		<rect x="914.668" y="1069.317" style="fill:#C5DAFF;" width="177.707" height="471.6"/>
		<rect x="584.445" y="991.07" style="fill:#C5DAFF;" width="208.576" height="549.847"/>
		<polygon style="fill:#C5DAFF;" points="943.632,893.866 765.925,947.051 765.925,1540.917 943.632,1540.917 		"/>
		<g>
			<rect x="1427.759" y="961.703" style="fill:#C5DAFF;" width="248.222" height="579.214"/>
			<rect x="1468.634" y="921.258" style="fill:#C5DAFF;" width="166.473" height="94.288"/>
			<rect x="1508.161" y="855.453" style="fill:#C5DAFF;" width="87.42" height="83.735"/>
			<rect x="1544.187" y="777.701" style="fill:#C5DAFF;" width="15.367" height="93.484"/>
		</g>
		<rect x="1613.43" y="1135.058" style="fill:#FFFFFF;" width="24.665" height="40.379"/>
		<rect x="862.286" y="950.606" style="fill:#FFFFFF;" width="24.666" height="40.379"/>
		<rect x="701.335" y="1024.68" style="fill:#FFFFFF;" width="24.665" height="40.379"/>
		<rect x="1539.537" y="871.185" style="fill:#FFFFFF;" width="24.666" height="40.379"/>
		<rect x="1556.697" y="1058.604" style="fill:#FFFFFF;" width="24.666" height="40.38"/>
		<rect x="1004.119" y="1112.256" style="fill:#FFFFFF;" width="24.666" height="40.379"/>
	</g>
	<path style="fill:#FFFFFF;" d="M1261.063,570.735c-15.886-4.008-34.797-13.831-33.398-30.156
		c1.252-14.606,18.692-22.13,33.348-21.832c14.656,0.3,29.48,5.141,43.728,1.699c18.615-4.495,30.921-21.589,42.362-36.948
		c12.13-16.286,25.542-32.275,43.173-42.35c17.631-10.075,40.385-13.285,58.19-3.52c13.628,7.476,23.068,21.599,37.487,27.405
		c19.502,7.852,41.077-1.693,61.49-6.727c20.412-5.035,47.791-1.621,53.974,18.473c5.172,16.814-7.585,38.228,4.29,51.188
		c60.832,66.392-58.441,43.545-101.849,46.525C1423.107,580.035,1340.766,590.834,1261.063,570.735z"/>
	<path style="fill:#FFFFFF;" d="M1157.893,707.283c11.77,19.482,2.272,47.163-17.083,59.141
		c-19.355,11.978-45.138,9.931-65.195-0.829c-10.646-5.713-20.381-13.768-32.202-16.257c-29.011-6.107-64.652,29.239-91.711,8.743
		c-23.464-17.772-12.354-33.926,5.569-47.697C1010.732,669.302,1098.696,724.538,1157.893,707.283z"/>
	<path style="fill:#FFFFFF;" d="M2458.793,432.277c15.172,25.113,2.93,60.793-22.021,76.233
		c-24.949,15.44-58.183,12.802-84.037-1.069c-13.724-7.363-26.271-17.747-41.509-20.955c-37.395-7.872-83.336,37.688-118.216,11.27
		c-30.245-22.908-15.924-43.73,7.179-61.483C2269.102,383.32,2382.487,454.519,2458.793,432.277z"/>
	<path style="fill:#FFFFFF;" d="M2090.077,654.859c-12.821,7.184-28.633,9.809-43.958,12.27c-11.264,1.809-22.526,3.618-33.79,5.427
		c-25.337,4.07-52.101,8.078-76.54,1.339c-17.73-4.888-32.805-15.124-50.959-18.87c-18.138-3.743-37.276-0.61-55.975-1.412
		c-5.343-0.23-10.762-0.805-15.617-2.61c-10.369-3.854-16.796-13.602-14.944-22.664c1.852-9.063,11.819-16.646,23.177-17.631
		c15.018-1.302,33.166,7.021,43.645-1.727c3.648-3.046,4.965-7.387,7.504-11.089c5.102-7.436,14.922-11.973,24.79-15.004
		c31.119-9.56,57.057-2.798,88.217,0.722c21.143,2.389,40.448-1.485,61.419-2.879c26.678-1.774,53.883,1.349,63.347,24.595
		C2117.503,622.794,2108.854,644.335,2090.077,654.859z"/>
	<path style="fill:#BDD1F9;" d="M3038.353,1405.68c-8.95,40.126-21.636,79.917-37.004,118.944
		c-23.337,59.3-52.858,116.806-84.878,170.971c-44.74,75.696-111.324,157.405-200.713,152.884l-2262.284,5.875
		c-46.186-0.439-89.815-51.39-114.875-90.187c-48.278-74.794-86.554-155.532-114.076-239.543
		c-12.801-39.027-23.266-78.772-31.349-118.944H3038.353z"/>
	<g>
		<path style="fill:#91B5F8;" d="M2873.288,975.084c23.191,3.431,44.089,15.422,46.466,41.504
			c2.252,24.692-16.587,49.133-7.27,73.593c9.564,25.104,36.863,33.692,26.897,64.745c-3.549,11.059-9.267,21.837-8.978,33.449
			c0.605,24.332,24.345,39.188,35.945,58.271c14.972,24.633,9.429,58.568-10.503,78.809
			c-37.898,38.488-102.174,24.666-149.981,21.016c-27.773-2.114-52.832-16.346-59.779-45.202
			c-8.063-33.503,13.051-49.646,26.246-76.145c12.842-25.784-2.968-56.149-3.349-84.952c-0.426-32.201,25.567-49.879,30.34-79.467
			c3.451-21.396-8.592-43.438,3.392-63.649c6.345-10.702,18.093-17.312,30.198-20.183
			C2844.912,974.027,2859.505,973.044,2873.288,975.084L2873.288,975.084z"/>
		<path style="fill:#17152B;" d="M2859.585,1467.008c-0.904,0-1.638-0.737-1.638-1.64v-424.433c0-0.904,0.733-1.638,1.638-1.638
			s1.638,0.733,1.638,1.638v424.433C2861.223,1466.271,2860.489,1467.008,2859.585,1467.008L2859.585,1467.008z"/>
		<path style="fill:#17152B;" d="M2859.586,1232.886c-0.621,0-1.215-0.357-1.49-0.958l-46.576-101.921
			c-0.375-0.822-0.014-1.794,0.81-2.169c0.823-0.378,1.794-0.015,2.17,0.809l46.576,101.918c0.375,0.827,0.013,1.795-0.81,2.171
			C2860.045,1232.839,2859.813,1232.886,2859.586,1232.886L2859.586,1232.886z"/>
		<path style="fill:#17152B;" d="M2859.584,1306.493c-0.324,0-0.648-0.095-0.935-0.292c-0.742-0.517-0.926-1.541-0.409-2.283
			l45.86-65.906c0.516-0.742,1.536-0.926,2.28-0.409c0.742,0.517,0.925,1.536,0.408,2.278l-45.859,65.907
			C2860.611,1306.249,2860.102,1306.493,2859.584,1306.493L2859.584,1306.493z"/>
	</g>
	<g>
		<path style="fill:#91B5F8;" d="M944.571,1062.618c18.318,2.711,34.823,12.182,36.701,32.782
			c1.778,19.503-13.101,38.807-5.742,58.126c7.555,19.828,29.117,26.611,21.245,51.138c-2.803,8.735-7.319,17.248-7.091,26.419
			c0.479,19.219,19.228,30.952,28.392,46.026c11.825,19.456,7.446,46.259-8.296,62.245c-29.934,30.399-80.701,19.482-118.461,16.599
			c-21.937-1.67-41.729-12.91-47.216-35.702c-6.37-26.462,10.308-39.212,20.729-60.142c10.143-20.365-2.344-44.349-2.644-67.099
			c-0.336-25.434,20.194-39.396,23.963-62.766c2.726-16.899-6.786-34.309,2.679-50.272c5.011-8.453,14.29-13.673,23.852-15.941
			C922.159,1061.784,933.685,1061.007,944.571,1062.618L944.571,1062.618z"/>
		<path style="fill:#17152B;" d="M933.748,1451.158c-0.714,0-1.293-0.582-1.293-1.295v-335.232c0-0.714,0.579-1.294,1.293-1.294
			c0.714,0,1.294,0.58,1.294,1.294v335.232C935.042,1450.576,934.462,1451.158,933.748,1451.158L933.748,1451.158z"/>
		<path style="fill:#17152B;" d="M933.749,1266.24c-0.491,0-0.96-0.282-1.178-0.758l-36.787-80.5
			c-0.297-0.649-0.011-1.417,0.64-1.714c0.649-0.298,1.417-0.011,1.714,0.639l36.788,80.5c0.296,0.652,0.01,1.417-0.64,1.714
			C934.111,1266.203,933.929,1266.24,933.749,1266.24L933.749,1266.24z"/>
		<path style="fill:#17152B;" d="M933.747,1324.378c-0.255,0-0.512-0.074-0.738-0.23c-0.586-0.408-0.731-1.217-0.323-1.804
			l36.222-52.056c0.407-0.586,1.213-0.73,1.801-0.322c0.586,0.408,0.731,1.213,0.323,1.8l-36.222,52.056
			C934.559,1324.185,934.156,1324.378,933.747,1324.378L933.747,1324.378z"/>
	</g>
	<g>
		<path style="fill:#91B5F8;" d="M708.625,963.45c24.547,3.632,46.665,16.323,49.181,43.929
			c2.383,26.135-17.557,52.004-7.695,77.893c10.124,26.57,39.017,35.661,28.469,68.527c-3.756,11.705-9.808,23.113-9.503,35.403
			c0.642,25.753,25.767,41.478,38.046,61.677c15.846,26.071,9.979,61.989-11.117,83.412
			c-40.112,40.736-108.143,26.106-158.743,22.242c-29.396-2.237-55.919-17.3-63.271-47.842
			c-8.536-35.461,13.812-52.547,27.779-80.593c13.592-27.29-3.142-59.431-3.544-89.916c-0.45-34.082,27.061-52.792,32.112-84.109
			c3.653-22.646-9.094-45.976,3.59-67.368c6.716-11.327,19.15-18.323,31.962-21.361C678.591,962.332,694.037,961.291,708.625,963.45
			L708.625,963.45z"/>
		<path style="fill:#17152B;" d="M694.121,1484.113c-0.958,0-1.733-0.78-1.733-1.735v-449.229c0-0.957,0.776-1.733,1.733-1.733
			c0.957,0,1.733,0.776,1.733,1.733v449.229C695.854,1483.333,695.078,1484.113,694.121,1484.113L694.121,1484.113z"/>
		<path style="fill:#17152B;" d="M694.122,1236.313c-0.658,0-1.287-0.378-1.578-1.015l-49.296-107.875
			c-0.397-0.87-0.014-1.898,0.857-2.296c0.871-0.399,1.899-0.015,2.297,0.855l49.297,107.873c0.397,0.876,0.014,1.899-0.857,2.298
			C694.608,1236.264,694.363,1236.313,694.122,1236.313L694.122,1236.313z"/>
		<path style="fill:#17152B;" d="M694.12,1314.221c-0.342,0-0.686-0.1-0.989-0.309c-0.785-0.547-0.979-1.631-0.433-2.416
			l48.539-69.758c0.546-0.785,1.626-0.979,2.413-0.433c0.786,0.547,0.979,1.626,0.433,2.412l-48.539,69.757
			C695.207,1313.962,694.668,1314.221,694.12,1314.221L694.12,1314.221z"/>
	</g>
	<g>
		<path style="fill:#7C9AF2;" d="M418.484,832.227c32.123,4.753,61.067,21.362,64.361,57.488
			c3.118,34.201-22.975,68.054-10.07,101.933c13.248,34.771,51.06,46.668,37.256,89.679c-4.916,15.317-12.836,30.246-12.436,46.331
			c0.84,33.698,33.72,54.278,49.789,80.714c20.737,34.115,13.059,81.119-14.547,109.156
			c-52.493,53.308-141.522,34.159-207.739,29.109c-38.47-2.934-73.178-22.644-82.8-62.615
			c-11.169-46.403,18.075-68.764,36.352-105.463c17.787-35.714-4.11-77.773-4.638-117.668
			c-0.59-44.603,35.413-69.087,42.024-110.069c4.78-29.636-11.901-60.166,4.697-88.161c8.788-14.822,25.061-23.978,41.828-27.954
			C379.181,830.765,399.395,829.402,418.484,832.227z"/>
		<path style="fill:#17152B;" d="M399.505,1461.415c-1.253,0-2.269-0.927-2.269-2.069V923.24c0-1.142,1.016-2.069,2.269-2.069
			c1.252,0,2.269,0.926,2.269,2.069v536.106C401.773,1460.488,400.757,1461.415,399.505,1461.415z"/>
		<path style="fill:#17152B;" d="M399.506,1189.308c-0.86,0-1.684-0.492-2.064-1.326l-64.512-141.17
			c-0.521-1.14-0.019-2.485,1.121-3.006c1.14-0.522,2.485-0.02,3.006,1.12l64.512,141.17c0.521,1.14,0.019,2.485-1.121,3.006
			C400.142,1189.241,399.822,1189.308,399.506,1189.308z"/>
		<path style="fill:#17152B;" d="M399.503,1291.261c-0.448,0-0.898-0.132-1.294-0.406c-1.028-0.716-1.281-2.13-0.566-3.157
			l63.52-91.291c0.715-1.029,2.128-1.283,3.158-0.566c1.027,0.716,1.281,2.129,0.566,3.157l-63.52,91.291
			C400.926,1290.922,400.221,1291.261,399.503,1291.261z"/>
	</g>
	<g>
		<rect x="1212.354" y="1103.854" style="fill:#060633;" width="11.513" height="352.784"/>
		<rect x="1175.349" y="927.873" style="fill:#060633;" width="81.412" height="179.271"/>
		<circle style="fill:#FA7267;" cx="1216.466" cy="977.213" r="29.604"/>
		<path style="fill:#6D8AD1;" d="M1245.248,1055.335c0-16.35-13.254-29.604-29.604-29.604c-16.351,0-29.605,13.254-29.605,29.604
			c0,16.351,13.254,29.604,29.605,29.604C1231.994,1084.939,1245.248,1071.686,1245.248,1055.335z"/>
	</g>
	<path style="fill:#8099D6;" d="M3001.349,1524.624c-23.337,59.3-52.858,116.806-84.878,170.971
		c-44.74,75.696-111.324,157.405-200.713,152.884l-2262.284,5.875c-46.186-0.439-89.815-51.39-114.875-90.187
		c-48.278-74.794-86.554-155.532-114.076-239.543H3001.349z"/>
	<g>
		<path style="fill:#91B5F8;" d="M294.147,1478.807c0,0,84.015,4.673,101.492-1.444c17.477-6.117,35.552-37.301,22.173-52.31
			c-10.957-12.293-25.017-1.382-32.844-11.819c-7.828-10.438,18.755-46.295-38.381-40.335c-57.136,5.961-26.68,50.046-41.482,44.71
			C276.146,1407.172,236.229,1455.076,294.147,1478.807z"/>
	</g>
	<g>
		<path style="fill:#91B5F8;" d="M2847.895,1474.221c0,0,82.084,4.565,99.159-1.41c17.075-5.977,34.735-36.444,21.664-51.108
			c-10.706-12.011-24.442-1.35-32.089-11.547c-7.647-10.198,18.324-45.231-37.499-39.408s-26.066,48.896-40.529,43.683
			C2830.307,1404.232,2791.307,1451.036,2847.895,1474.221z"/>
	</g>
	<g>
		<path style="fill:#91B5F8;" d="M1000.826,1454.955c0,0,45.867,2.551,55.408-0.788c9.541-3.34,19.409-20.364,12.105-28.558
			c-5.982-6.712-13.658-0.755-17.931-6.453s10.239-25.273-20.954-22.02c-31.192,3.254-14.565,27.321-22.647,24.408
			C990.998,1415.847,969.206,1442,1000.826,1454.955z"/>
	</g>
	<g>
		<rect x="725.77" y="1431.15" style="fill:#060633;" width="168.978" height="10.5"/>
		<rect x="725.77" y="1375.704" style="fill:#060633;" width="140.737" height="33.899"/>
		<rect x="729.84" y="1399.612" style="fill:#060633;" width="3.561" height="85.197"/>
		<rect x="756.037" y="1437.971" style="fill:#060633;" width="3.561" height="46.839"/>
		<rect x="859.725" y="1399.612" style="fill:#060633;" width="3.561" height="85.197"/>
		<rect x="885.923" y="1437.971" style="fill:#060633;" width="3.56" height="46.839"/>
	</g>
	<g>
		<polygon style="fill:#FFFFFF;" points="431.486,1685.707 364.797,1684.556 373.874,1678.398 440.563,1679.55 		"/>
		<polygon style="fill:#FFFFFF;" points="643.593,1685.707 576.905,1684.556 585.982,1678.398 652.67,1679.55 		"/>
	</g>
	<g>
		<polygon style="fill:#FFFFFF;" points="1113.747,1685.707 1047.059,1684.556 1056.135,1678.398 1122.823,1679.55 		"/>
		<polygon style="fill:#FFFFFF;" points="1325.854,1685.707 1259.166,1684.556 1268.243,1678.398 1334.931,1679.55 		"/>
	</g>
	<g>
		<polygon style="fill:#FFFFFF;" points="2521.071,1685.707 2454.383,1684.556 2463.46,1678.398 2530.148,1679.55 		"/>
		<polygon style="fill:#FFFFFF;" points="2733.179,1685.707 2666.49,1684.556 2675.567,1678.398 2742.256,1679.55 		"/>
	</g>
	<g>
		<path style="fill:#FA7267;" d="M2341.845,1756.64c0,0-109.474,1.156-108.317,0l9.332-26.597l9.933-28.331l7.505-21.394
			l9.934-28.331l11.969-34.113h11.32l11.876,34.113l9.876,28.331l7.447,21.394l9.863,28.331L2341.845,1756.64z"/>
		<rect x="2225.433" y="1752.592" style="fill:#E8554D;" width="121.997" height="7.517"/>
		<polygon style="fill:#FFFFFF;" points="2315.271,1680.318 2260.297,1680.318 2270.23,1651.987 2305.396,1651.987 		"/>
		<polygon style="fill:#FFFFFF;" points="2332.582,1730.043 2242.859,1730.043 2252.792,1701.712 2322.719,1701.712 		"/>
	</g>
	<path style="fill:#DDE7FE;" d="M3008.771,1505.128c-2.555,6.962-5.203,13.899-7.943,20.814H224.951
		c-2.278-6.915-4.487-13.853-6.614-20.814H3008.771z"/>
	<g>
		<path style="fill:#FA7267;" d="M1359.551,1602.271c0,0-109.474,1.156-108.317,0l9.332-26.597l9.933-28.331l7.505-21.393
			l9.934-28.332l11.968-34.112h11.321l11.875,34.112l9.875,28.332l7.447,21.393l9.864,28.331L1359.551,1602.271z"/>
		<rect x="1243.139" y="1598.225" style="fill:#E8554D;" width="121.997" height="7.516"/>
		<polygon style="fill:#FFFFFF;" points="1332.978,1525.951 1278.003,1525.951 1287.937,1497.619 1323.102,1497.619 		"/>
		<polygon style="fill:#FFFFFF;" points="1350.289,1575.675 1260.565,1575.675 1270.499,1547.344 1340.425,1547.344 		"/>
	</g>
	<g>
		<g>
			<path style="fill:#FB9391;" d="M584.502,1578.643c0,0-0.358,24.97-0.164,25.327c0.194,0.357-1.824,3.483-1.824,3.483l-7.877,1.41
				l-7.187-3.305c0,0,0.633-23.218-0.118-26.875C566.577,1575.021,584.502,1578.643,584.502,1578.643L584.502,1578.643z"/>
			<path style="fill:#060633;" d="M567.451,1605.559c0,0,9.077,3.178,16.837-2.079c0,0,30.236,11.33,29.311,19.948
				c0,0,1.287,2.569-11.81,2.012c-13.103-0.557-33.459-1.139-34.001-1.44C567.241,1623.698,564.677,1625.082,567.451,1605.559
				L567.451,1605.559z"/>
		</g>
		<g>
			<path style="fill:#FB9391;" d="M508.659,1578.643c0,0-0.358,24.97-0.164,25.327c0.194,0.357-1.824,3.483-1.824,3.483l-7.877,1.41
				l-7.188-3.305c0,0,0.633-23.218-0.117-26.875C490.734,1575.021,508.659,1578.643,508.659,1578.643L508.659,1578.643z"/>
			<path style="fill:#060633;" d="M491.607,1605.559c0,0,9.078,3.178,16.837-2.079c0,0,30.236,11.33,29.312,19.948
				c0,0,1.288,2.569-11.81,2.012c-13.103-0.557-33.46-1.139-34.002-1.44C491.398,1623.698,488.834,1625.082,491.607,1605.559
				L491.607,1605.559z"/>
		</g>
		<path style="fill:#0B0755;" d="M587.746,1214.689c-14.37-7.664-75.685-2.874-91.97,12.454
			c-16.285,15.327-48.861,90.735-35.446,149.793h22.992c0,0-3.831-52.702,16.285-94.539l1.916,68.768l96.757-4.945l8.623-63.822
			C606.902,1282.397,602.115,1222.354,587.746,1214.689z"/>
		<path style="fill:#FA7267;" d="M594.928,1258.699l-7.183-44.01c0,0-4.347-1.935-8.607-2.493l7.826,45.604L594.928,1258.699
			L594.928,1258.699z"/>
		<polygon style="fill:#FA7267;" points="517.333,1257.801 517.333,1216.982 525.767,1214.947 528.586,1259.956 517.333,1257.801 		
			"/>
		<path style="fill:#FA7267;" d="M601.91,1510.668c-0.308,4.045-0.641,8.174-0.993,12.385c-0.519,6.134-1.081,12.439-1.692,18.921
			c-0.381,4.06-0.788,8.188-1.208,12.385c-1.306,12.895-2.808,26.438-4.525,40.658h-31.614c0,0-0.631-16.915-1.673-40.658
			c-0.176-3.952-0.357-8.095-0.553-12.385c-0.279-6.065-0.572-12.415-0.89-18.921c-0.196-4.079-0.401-8.218-0.606-12.385
			c-2.441-48.191-5.718-100.145-8.731-105.554c-3.801-6.824-10.977,48.127-19.923,105.554c-0.641,4.123-1.296,8.257-1.952,12.385
			c-1.018,6.354-2.055,12.688-3.111,18.921c-0.709,4.182-1.423,8.32-2.152,12.385c-2.495,14.034-5.082,27.231-7.733,38.594
			l-26.815-5.424c0,0,0.132-13.574,0.44-33.17c0.063-3.908,0.127-8.056,0.206-12.385c0.102-6.012,0.22-12.376,0.357-18.921
			c0.078-4.069,0.166-8.213,0.264-12.385c0.817-36.256,2.069-75.012,3.893-90.963c3.835-33.531,8.301-80.029,8.301-80.029h9.9
			l6.232-81.874h77.599l7.66,89.187C602.59,1346.988,610.651,1396.573,601.91,1510.668z"/>
		<path style="fill:#FB9391;" d="M476.854,1377.253c0,0,6.355,7.131,8.046,11.382c1.691,4.25,6.487,7.11,4.5,8.862
			c-1.992,1.758-8.214-4.47-8.214-4.47s-0.628,2.738-0.459,5.63c0.163,2.886-0.715,5.736-2.82,6.022
			c-2.104,0.286-2.309-4.726-2.309-4.726s-0.22,5.466-2.682,5.2c-1.993-0.215-2.927-7.279-2.927-7.279s-0.235,4.659-0.629,5.91
			c-0.47,1.497-2.937,2.438-3.739-2.078c-0.807-4.517-0.746-4.394-0.746-4.394s-0.598,4.689-1.114,5.69
			c-0.511,1.007-3.065,1.752-3.116-2.125c-0.087-6.83-0.516-16.775,3.188-23.942L476.854,1377.253L476.854,1377.253z"/>
		<path style="fill:#FA7267;" d="M525.894,1260.585c0-1.538-1.247-2.784-2.784-2.784c-1.538,0-2.784,1.246-2.784,2.784
			c0,1.537,1.247,2.783,2.784,2.783C524.648,1263.368,525.894,1262.122,525.894,1260.585L525.894,1260.585z"/>
		<path style="fill:#FA7267;" d="M594.356,1261.483c0-1.537-1.247-2.784-2.784-2.784s-2.784,1.247-2.784,2.784
			c0,1.538,1.247,2.784,2.784,2.784S594.356,1263.021,594.356,1261.483L594.356,1261.483z"/>
		<path style="fill:#FFFFFF;" d="M529.501,1510.668c-0.641,4.123-1.296,8.257-1.952,12.385h-38.81
			c0.078-4.069,0.166-8.213,0.264-12.385H529.501z"/>
		<path style="fill:#FFFFFF;" d="M524.438,1541.974c-0.709,4.182-1.423,8.32-2.152,12.385h-34.108
			c0.063-3.908,0.127-8.056,0.206-12.385H524.438z"/>
		<path style="fill:#FFFFFF;" d="M601.91,1510.668c-0.308,4.045-0.641,8.174-0.993,12.385h-42.155
			c-0.196-4.079-0.401-8.218-0.606-12.385H601.91z"/>
		<path style="fill:#FFFFFF;" d="M599.225,1541.974c-0.381,4.06-0.788,8.188-1.208,12.385h-37.812
			c-0.176-3.952-0.357-8.095-0.553-12.385H599.225z"/>
		<g>
			
				<rect x="560.814" y="1310.153" transform="matrix(0.9729 0.2311 -0.2311 0.9729 322.7068 -95.7437)" style="fill:#060633;" width="18.588" height="39.383"/>
			
				<rect x="576.961" y="1270.612" transform="matrix(0.9729 0.2311 -0.2311 0.9729 314.7401 -98.6389)" style="fill:#060633;" width="3.098" height="47.708"/>
			
				<rect x="565.672" y="1312.407" transform="matrix(0.9729 0.2311 -0.2311 0.9729 319.6704 -96.8221)" style="fill:#283AE5;" width="15.084" height="8.012"/>
		</g>
		<path style="fill:#FB9391;" d="M585.354,1331.24c0,0-6.068-7.377-10.007-9.702c-3.94-2.325-6.027-7.505-8.065-5.811
			c-2.043,1.697,3.152,8.804,3.152,8.804s-2.802,0.199-5.633-0.412c-2.827-0.605-5.779-0.177-6.385,1.859
			c-0.607,2.035,4.313,3.009,4.313,3.009s-5.435-0.625-5.551,1.849c-0.094,2.002,6.742,4.014,6.742,4.014s-4.639-0.485-5.937-0.289
			c-1.551,0.233-2.86,2.526,1.479,4.015c4.338,1.492,4.226,1.413,4.226,1.413s-4.726-0.132-5.794,0.224
			c-1.073,0.351-2.203,2.759,1.62,3.406c6.735,1.138,16.497,3.093,24.148,0.536L585.354,1331.24L585.354,1331.24z"/>
		<path style="fill:#0B0755;" d="M587.125,1214.689c0,0,44.203,26.13,48.06,91.285c2.875,48.569-56.668,41.978-56.668,41.978
			l4.629-19.035c0,0,24.213-4.246,26.659-14.644c2.446-10.396-8.315-30.082-8.315-30.082L587.125,1214.689z"/>
		<g>
			<path style="fill:#EA6868;" d="M573.197,1171.799c0,0,1.727-2.942,3.274-1.869c3.954,2.738,0.373,6.735-2.104,7.717
				L573.197,1171.799L573.197,1171.799z"/>
			<path style="fill:#FB9391;" d="M573.463,1161.279l-0.021,0.006c-0.005-0.299-0.01-0.597-0.03-0.898
				c-0.736-13.305-12.546-23.369-25.991-21.736c-11.203,1.361-19.907,10.815-20.331,22.093c-0.159,4.187,0.792,8.104,2.549,11.52
				c2.442,5.297,4.587,9.826,6.799,13.567c3.657,6.187,5.108,13.433,4.301,20.574l-0.633,5.618
				c14.645,6.789,20.745-0.614,20.745-0.614l-0.301-10.23c-0.041-1.335,0.955-2.466,2.278-2.625c0.01-0.001,0.015-0.002,0.025-0.003
				C580.431,1196.426,573.902,1169.228,573.463,1161.279L573.463,1161.279z"/>
			<path style="fill:#050521;" d="M550.281,1174.748c-0.067-1.19-1.083-2.102-2.273-2.036c-1.19,0.066-2.104,1.084-2.038,2.274
				c0.066,1.19,1.083,2.102,2.273,2.036C549.434,1176.957,550.348,1175.938,550.281,1174.748L550.281,1174.748z"/>
			<path style="fill:#050521;" d="M569.223,1169.857c-0.066-1.19-1.083-2.103-2.273-2.037c-1.19,0.066-2.104,1.084-2.038,2.274
				c0.066,1.19,1.083,2.102,2.273,2.036C568.375,1172.065,569.29,1171.047,569.223,1169.857L569.223,1169.857z"/>
			<path style="fill:#050521;" d="M542.374,1171.813c-0.22,0.012-0.45-0.033-0.659-0.145c-0.618-0.326-0.853-1.091-0.526-1.709
				c0.98-1.861,4.147-4.816,9.102-2.673c0.644,0.277,0.935,1.022,0.659,1.663c-0.276,0.642-1.021,0.936-1.66,0.659
				c-4.071-1.764-5.793,1.396-5.864,1.53C543.211,1171.547,542.803,1171.788,542.374,1171.813L542.374,1171.813z"/>
			<path style="fill:#050521;" d="M562.394,1167.329c-0.22,0.012-0.445-0.033-0.659-0.145c-0.618-0.325-0.853-1.091-0.526-1.708
				c0.981-1.863,4.148-4.818,9.103-2.673c0.644,0.277,0.94,1.021,0.659,1.662c-0.276,0.642-1.022,0.937-1.66,0.659
				c-4.071-1.764-5.793,1.396-5.864,1.531C563.231,1167.063,562.822,1167.306,562.394,1167.329L562.394,1167.329z"/>
			<polygon style="fill:#050521;" points="524.245,1162.771 532.269,1179.971 536.433,1178.896 537.843,1155.387 524.245,1162.771 
							"/>
			<path style="fill:#FB9391;" d="M537.056,1178.361c-0.414-0.728-1.098-1.264-1.89-1.533c-1.635-0.557-4.495-1.105-6.324,0.94
				c-2.687,3.001,3.448,10.224,8.899,6.164C537.741,1183.933,539.268,1182.229,537.056,1178.361L537.056,1178.361z"/>
			<path style="fill:#EA6868;" d="M561.785,1181.942c-2.013,1.127-3.913,0.113-3.939,0.1c-0.179-0.099-0.245-0.325-0.148-0.508
				c0.102-0.181,0.332-0.248,0.511-0.149c0.087,0.047,2.207,1.151,4.158-0.831c0.317-0.323,0.48-0.581,0.475-0.764
				c0-0.258-0.327-0.573-0.776-1.009c-1.042-1.002-2.779-2.681-3.515-6.648c-0.036-0.204,0.102-0.4,0.301-0.438
				c0.205-0.037,0.404,0.098,0.439,0.301c0.689,3.731,2.258,5.244,3.295,6.245c0.557,0.541,1.001,0.968,1.006,1.54
				c0.005,0.407-0.205,0.808-0.69,1.299C562.536,1181.454,562.158,1181.734,561.785,1181.942L561.785,1181.942z"/>
			<path style="fill:#FFFFFF;" d="M553.31,1186.353c0,0,8.848,0.595,14.278-2.308c0,0-1.011,6.838-6.089,7.658
				C556.422,1192.523,553.31,1186.353,553.31,1186.353L553.31,1186.353z"/>
			<path style="fill:#050521;" d="M569.244,1152.494c0,0,3.458,2.153,5.047,16.161c0,0,0.271-15.728-1.568-17.356
				C570.883,1149.671,569.244,1152.494,569.244,1152.494L569.244,1152.494z"/>
			<path style="fill:#050521;" d="M548.867,1162.634c0.342-0.021,0.7-0.055,1.001-0.224c0.419-0.232,0.664-0.691,0.787-1.155
				c0.388-1.519-0.546-3.257-2.028-3.771c1.721,0.983,3.811,1.005,5.798,1c3.198-0.007,6.395-0.015,9.593-0.021
				c0.169-0.001,0.348-0.004,0.496-0.09c0.128-0.076,0.21-0.205,0.281-0.336c0.501-0.917,0.491-2.09-0.025-2.998
				c-0.516-0.908-1.517-1.521-2.559-1.565c2.907,1.268,6.155,1.727,9.297,1.312c1.252-0.165,2.508-0.477,3.561-1.168
				c1.058-0.691,1.885-1.813,1.977-3.068c0.092-1.257-0.685-2.596-1.9-2.924c0.643-0.207,1.303-0.424,1.813-0.859
				c0.516-0.437,0.853-1.153,0.644-1.795c-0.286-0.891-1.394-1.189-2.33-1.21c-1.721-0.039-3.412,0.382-5.083,0.8
				c-4.424,1.107-8.842,2.215-13.266,3.322c-2.728,0.683-5.461,1.367-8.102,2.328c-2.431,0.885-4.776,2.002-7.11,3.115
				c-1.512,0.719-9.966,5.054-6.248,6.884C539.263,1162.078,544.678,1162.893,548.867,1162.634L548.867,1162.634z"/>
			<path style="fill:#050521;" d="M524.245,1162.771c0,0-12.389-18.424,6.799-29.295c19.188-10.87,39.866-3.1,46.557,11.495
				L524.245,1162.771z"/>
		</g>
		<path style="fill:#EA5F57;" d="M515.531,1167.331c0,0-6.033-29.27,17.691-38.953c23.724-9.683,39.975,2.22,45.014,18.743
			C578.236,1147.121,576.512,1161.182,515.531,1167.331z"/>
		<path style="fill:#EA5F57;" d="M515.531,1167.331c0,0,69.382-6.727,72.883-11.944c3.501-5.218-10.814-10.416-10.814-10.416
			L515.531,1167.331z"/>
	</g>
	<g>
		<path style="fill:#131375;" d="M1740.412,860.893c0,0,127.801-84.398,212.198-65.107c84.397,19.29,108.511,39.787,147.092,36.17
			c38.582-3.617,79.575-62.695,165.178-26.525c85.603,36.171,113.333-1.206,168.794,13.263
			c55.461,14.468,83.493,43.404,83.493,43.404S1738.604,859.084,1740.412,860.893z"/>
		<g>
			<rect x="1391.244" y="1360.989" style="fill:#060633;" width="160.479" height="52.683"/>
			<path style="fill:#060633;" d="M1506.25,1473.649h1149.063c13.156,0,23.821-10.665,23.821-23.821v-75.681H1506.25V1473.649z"/>
			<ellipse style="fill:#0B0755;" cx="1525.807" cy="1493.055" rx="104.223" ry="99.363"/>
			<path style="opacity:0.4;fill:#7C9AF2;" d="M1481.275,1493.055c0-23.447,19.938-42.454,44.531-42.454
				s44.531,19.007,44.531,42.454s-19.937,42.455-44.531,42.455S1481.275,1516.502,1481.275,1493.055z"/>
			<ellipse style="fill:#0B0755;" cx="2525.902" cy="1493.055" rx="104.223" ry="99.363"/>
			<path style="opacity:0.4;fill:#7C9AF2;" d="M2481.371,1493.055c0-23.447,19.938-42.454,44.531-42.454
				s44.531,19.007,44.531,42.454s-19.938,42.455-44.531,42.455S2481.371,1516.502,2481.371,1493.055z"/>
			<ellipse style="fill:#0B0755;" cx="2251.141" cy="1493.055" rx="104.223" ry="99.363"/>
			<path style="opacity:0.4;fill:#7C9AF2;" d="M2206.61,1493.055c0-23.447,19.938-42.454,44.53-42.454
				c24.595,0,44.531,19.007,44.531,42.454s-19.937,42.455-44.531,42.455C2226.548,1535.51,2206.61,1516.502,2206.61,1493.055z"/>
			<path style="fill:#EA5F57;" d="M1904.777,1345.251h-549.544l45.739-287.543c7.435-46.738,58.687-81.849,119.48-81.849h384.325
				V1345.251z"/>
			<path style="fill:#EA5F57;" d="M1710.27,1334.855v138.652h-21.931c-27.453,0-48.468,5.401-65.612-29.563
				c-12.516-25.512-41.91-57.089-97.358-58.644c-91.028-2.557-104.918,66.275-104.918,66.275c-2.254,3.726-6.101,6.668-11.43,6.668
				l-47.359-0.362c-10.899-0.072-19.725-6.667-19.942-14.866l-1.314-46.973l-0.917-34.036l-0.615-21.69
				c1.893-6.426,9.537-10.947,18.266-10.803L1710.27,1334.855z"/>
			<path style="fill:#131375;" d="M2088.113,1501.768h-309.537c-5.849,0-10.634-4.785-10.634-10.634v-70.715
				c0-5.849,4.785-10.634,10.634-10.634h309.537c5.849,0,10.634,4.785,10.634,10.634v70.715
				C2098.747,1496.982,2093.962,1501.768,2088.113,1501.768z"/>
			<g>
				<path style="fill:#060633;" d="M1345.779,1109.955c0,0-13.739,55.58-13.057,64.644c0.682,9.063,12.046,13.484,20.684,13.484
					L1345.779,1109.955z"/>
				<path style="fill:#060633;" d="M1388.663,1188.083h-35.737c-4.236,0-7.703-3.467-7.703-7.703v-67.359
					c0-4.236,3.466-7.702,7.703-7.702h35.737c4.236,0,7.702,3.466,7.702,7.702v67.359
					C1396.365,1184.616,1392.899,1188.083,1388.663,1188.083z"/>
				<path style="fill:#7C9AF2;" d="M1385.928,1184.059h-28.449c-3.615,0-6.573-2.957-6.573-6.572v-60.958
					c0-3.615,2.958-6.573,6.573-6.573h28.449c3.615,0,6.573,2.958,6.573,6.573v60.958
					C1392.501,1181.102,1389.543,1184.059,1385.928,1184.059z"/>
				<g>
					<path style="fill:#060633;" d="M1370.794,1106.828c-0.941,0-1.705-0.676-1.705-1.51v-23.362c0-0.063,0.004-0.125,0.013-0.188
						c0.02-0.134,2.126-13.432,20.716-13.004c17,0.396,24.325,0.007,24.397,0.003c0.94-0.053,1.748,0.58,1.808,1.413
						c0.059,0.833-0.656,1.55-1.595,1.602c-0.3,0.017-7.546,0.403-24.699,0.002c-14.972-0.345-17.047,9.2-17.23,10.275v23.259
						C1372.499,1106.152,1371.736,1106.828,1370.794,1106.828z"/>
				</g>
			</g>
			<polygon style="fill:#7C9AF2;" points="2725.348,1377.825 1668.339,1377.825 1668.339,857.211 2662.878,857.211 			"/>
			<g>
				<path style="fill:#060633;" d="M2687.559,1349.567h-981.395l0.149-1.541l-3.2-472.913h926.353l0.165,1.326L2687.559,1349.567z
					 M1710.688,1346.667h972.263l-57.38-468.652h-917.719L1710.688,1346.667z"/>
			</g>
			<path style="fill:#90AFFC;" d="M1830.503,1302.604h-13.384c-11.098,0-20.177-9.079-20.177-20.176V983.688
				c0-11.097,9.079-20.176,20.177-20.176h13.384c11.097,0,20.177,9.079,20.177,20.176v298.741
				C1850.68,1293.525,1841.6,1302.604,1830.503,1302.604z"/>
			<path style="fill:#90AFFC;" d="M2007.262,1302.604h-13.384c-11.097,0-20.177-9.079-20.177-20.176V983.688
				c0-11.097,9.08-20.176,20.177-20.176h13.384c11.098,0,20.177,9.079,20.177,20.176v298.741
				C2027.438,1293.525,2018.359,1302.604,2007.262,1302.604z"/>
			<path style="fill:#90AFFC;" d="M2184.021,1302.604h-13.385c-11.097,0-20.176-9.079-20.176-20.176V983.688
				c0-11.097,9.079-20.176,20.176-20.176h13.385c11.097,0,20.176,9.079,20.176,20.176v298.741
				C2204.197,1293.525,2195.118,1302.604,2184.021,1302.604z"/>
			<path style="fill:#90AFFC;" d="M2537.539,1302.604h-13.384c-11.097,0-20.177-9.079-20.177-20.176V983.688
				c0-11.097,9.08-20.176,20.177-20.176h13.384c11.098,0,20.177,9.079,20.177,20.176v298.741
				C2557.716,1293.525,2548.637,1302.604,2537.539,1302.604z"/>
			<path style="fill:#90AFFC;" d="M2360.78,1302.604h-13.384c-11.098,0-20.177-9.079-20.177-20.176V983.688
				c0-11.097,9.079-20.176,20.177-20.176h13.384c11.097,0,20.177,9.079,20.177,20.176v298.741
				C2380.957,1293.525,2371.877,1302.604,2360.78,1302.604z"/>
			<g>
				<path style="fill:#060633;" d="M1622.184,1377.607h-194.771c-13.237,0-25.558-4.98-32.958-13.323
					c-5.089-5.737-7.434-12.712-6.601-19.641l29.201-243.038c5.935-54.494,47.44-95.599,96.544-95.599h108.585V1377.607z
					 M1513.598,1008.438c-47.86,0-88.327,40.172-94.128,93.444l-29.202,243.05c-0.759,6.319,1.318,12.453,6.006,17.738
					c6.946,7.83,18.587,12.505,31.139,12.505h192.339v-366.737H1513.598z"/>
			</g>
			<g>
				<path style="fill:#C93A36;" d="M1529.137,1250.146c0-10.347,12.841-18.735,28.681-18.735c15.84,0,28.682,8.389,28.682,18.735
					s-12.841,18.734-28.682,18.734C1541.978,1268.88,1529.137,1260.492,1529.137,1250.146z"/>
				<path style="fill:#EA5F57;" d="M1506.925,1242.842h103.473c0.312,0,0.564,0.253,0.564,0.565v11.571
					c0,0.313-0.253,0.564-0.564,0.564h-103.472c-0.312,0-0.565-0.252-0.565-0.564v-11.572
					C1506.36,1243.095,1506.613,1242.842,1506.925,1242.842z"/>
			</g>
			<path style="fill:#91B5F8;" d="M1604.156,1019.296h-62.95c-59.705,0-100.2,32.682-110.161,91.298l-7.47,67.546l179.563,1.985
				L1604.156,1019.296z"/>
			<polygon style="fill:#DDE7FE;" points="1361.66,1362.003 1361.66,1396.044 1340.409,1396.044 1339.485,1362.003 			"/>
		</g>
	</g>
	<g>
		<path style="fill:#FB9391;" d="M1989.856,1659.947c0,0,0.396,27.531,0.182,27.924c-0.214,0.395,2.01,3.84,2.01,3.84l8.684,1.557
			l7.926-3.645c0,0-0.699-25.595,0.13-29.631C2009.617,1655.955,1989.856,1659.947,1989.856,1659.947z"/>
		<path style="fill:#060633;" d="M2008.657,1689.623c0,0-10.009,3.501-18.564-2.292c0,0-33.328,12.491-32.311,21.989
			c0,0-1.419,2.83,13.021,2.219c14.44-0.61,36.883-1.253,37.483-1.586C2008.888,1709.619,2011.715,1711.145,2008.657,1689.623z"/>
		<path style="fill:#FB9391;" d="M2092.215,1652.501c0,0,9.102,25.985,9.023,26.427s3.123,3.004,3.123,3.004l8.729-1.277
			l6.362-5.968c0,0-8.776-24.053-9.269-28.144C2109.69,1642.451,2092.215,1652.501,2092.215,1652.501z"/>
		<path style="fill:#060633;" d="M2119.452,1674.687c0,0-8.383,6.493-18.334,3.711c0,0-27.65,22.412-23.674,31.098
			c0,0-0.449,3.134,13.053-2.023c13.502-5.156,34.583-12.88,35.048-13.387S2129.174,1694.129,2119.452,1674.687z"/>
		<path style="fill:#FFFFFF;" d="M1916.555,1278.629c8.261-15.941,66.936-49.91,91.306-46.168l85.942,148.397l-104.616,23.808
			l-55.697-75.072C1933.489,1329.594,1908.294,1294.569,1916.555,1278.629z"/>
		<path style="fill:#EA5F57;" d="M2081.688,1396.508l-22.771-44.862L2005,1278.697l-77.775,35.638l42.689,90.229
			c0,0-13.201,81.221,10.033,273.437h34.853c0,0,7.393-197.979,13.729-209.355c6.337-11.376,28.516,123.809,63.368,205.131
			l31.684-9.505c0,0-28.516-142.578-32.74-179.542C2086.616,1447.765,2081.688,1396.508,2081.688,1396.508z"/>
		<polygon style="fill:#D84B48;" points="1949.609,1328.639 2002.845,1305.069 2021.396,1346.97 2000.233,1371.075 
			1968.161,1370.539 		"/>
		<g>
			<g>
				<path style="fill:#EA6868;" d="M1899.6,1231.479c0,0-3.425-1.691-4.213,0.267c-2.011,4.992,3.798,6.528,6.721,5.919
					L1899.6,1231.479z"/>
				<path style="fill:#FB9391;" d="M1892.879,1221.803l0.024-0.009c-0.179-0.282-0.358-0.565-0.527-0.856
					c-7.502-12.895-2.648-29.577,10.932-36.326c11.313-5.622,25.273-2.137,32.609,8.148c2.723,3.818,4.248,8.064,4.706,12.341
					c0.976,6.458,1.758,12.013,1.992,16.872c0.387,8.037,3.49,15.706,8.639,21.89l4.05,4.864
					c-9.519,15.362-19.779,12.193-19.779,12.193l-6.013-9.753c-0.785-1.272-2.409-1.72-3.748-1.052
					c-0.009,0.004-0.017,0.008-0.025,0.012C1907.991,1258.959,1897.36,1229.505,1892.879,1221.803z"/>
				<path style="fill:#050521;" d="M1922.848,1220.131c-0.671-1.154-0.279-2.633,0.874-3.304c1.153-0.672,2.632-0.28,3.304,0.873
					c0.671,1.153,0.279,2.633-0.874,3.304S1923.519,1221.284,1922.848,1220.131z"/>
				<path style="fill:#050521;" d="M1902.123,1227.215c-0.671-1.154-0.28-2.633,0.873-3.305c1.154-0.671,2.633-0.279,3.305,0.874
					c0.671,1.153,0.279,2.633-0.874,3.304S1902.794,1228.368,1902.123,1227.215z"/>
				<path style="fill:#050521;" d="M1928.435,1212.52c0.214-0.125,0.398-0.308,0.526-0.54c0.377-0.686,0.128-1.546-0.557-1.924
					c-2.065-1.137-6.844-1.952-10.16,3.104c-0.429,0.654-0.246,1.531,0.407,1.961c0.654,0.429,1.532,0.244,1.961-0.408
					c2.721-4.155,6.275-2.259,6.426-2.176C1927.489,1212.785,1928.019,1212.762,1928.435,1212.52z"/>
				<path style="fill:#050521;" d="M1906.952,1220.648c0.215-0.125,0.399-0.308,0.527-0.541c0.377-0.685,0.128-1.545-0.558-1.923
					c-2.064-1.137-6.845-1.952-10.16,3.104c-0.428,0.654-0.246,1.531,0.408,1.961c0.654,0.429,1.532,0.245,1.961-0.408
					c2.722-4.154,6.275-2.26,6.426-2.177C1906.008,1220.914,1906.536,1220.891,1906.952,1220.648z"/>
				<polygon style="fill:#0B0755;" points="1940.161,1195.207 1942.904,1213.93 1938.35,1215.487 1924.51,1197.329 				"/>
				<path style="fill:#FB9391;" d="M1937.438,1215.371c-0.06-0.937,0.25-1.857,0.826-2.599c1.186-1.526,3.521-3.798,6.492-3.013
					c4.36,1.152,3.066,11.685-4.526,11.242C1940.229,1221.002,1937.752,1220.347,1937.438,1215.371z"/>
				<path style="fill:#EA6868;" d="M1916.515,1233.941c2.577-0.187,3.731-2.306,3.744-2.331c0.108-0.205,0.03-0.457-0.174-0.566
					c-0.204-0.108-0.459-0.031-0.568,0.173c-0.054,0.099-1.354,2.435-4.4,1.782c-0.496-0.106-0.805-0.248-0.915-0.421
					c-0.155-0.243-0.045-0.738,0.109-1.424c0.354-1.576,0.946-4.216-0.81-8.377c-0.091-0.215-0.338-0.314-0.552-0.225
					c-0.213,0.09-0.313,0.337-0.223,0.551c1.651,3.914,1.117,6.293,0.764,7.867c-0.191,0.851-0.342,1.521,0.003,2.061
					c0.246,0.385,0.692,0.628,1.447,0.789C1915.515,1233.943,1916.039,1233.975,1916.515,1233.941z"/>
				<path style="fill:#FFFFFF;" d="M1927.157,1232.846c0,0-7.911,6.005-14.771,6.631c0,0,5.152,5.772,10.406,3.414
					S1927.157,1232.846,1927.157,1232.846z"/>
				<path style="fill:#0B0755;" d="M1891.417,1210.99c0,0-1.906,4.141,5.225,18.221c0,0-8.865-15.058-8.148-17.712
					C1889.209,1208.845,1891.417,1210.99,1891.417,1210.99z"/>
			</g>
			<path style="fill:#FA7267;" d="M1942.525,1194.364c0,0-12.789-28.169-37.348-23.092c-24.56,5.077-30.264,24.256-24.335,41.071
				C1880.843,1212.344,1890.64,1223.288,1942.525,1194.364z"/>
			<path style="fill:#DD4B47;" d="M1942.525,1194.364c0,0-37.516,25.136-59.342,25.136c-6.39,0-3.129-9.333-3.129-9.333
				L1942.525,1194.364z"/>
		</g>
		<polygon style="fill:#0B0755;" points="2005,1278.697 1979.483,1237.574 1971.475,1240.372 1993.902,1284.485 		"/>
		<path style="fill:#0B0755;" d="M1929.351,1313.361l-10.973-37.964c0,0,4.803-5.863,8.847-8.335l11.23,42.127L1929.351,1313.361z"
			/>
		<path style="fill:#FB9391;" d="M2004.347,1234.295c5.461,0.163,60.044-1.582,76.966,4.756s26.834,66.202,26.834,66.202
			l-9.145,7.115c0,0-30.699-54.274-37.072-53.15c-6.374,1.124-44.075,8.218-44.075,8.218L2004.347,1234.295z"/>
		<path style="fill:#FB9391;" d="M1908.801,1312.368c0,0-5.208,68.039,4.593,91.573c10.432,25.051,45.483,44.136,45.483,44.136
			l6.553-9.444c0,0-25.759-32.411-26.975-53.686c-1.706-29.839,0-46.875,0-46.875L1908.801,1312.368z"/>
		<path style="fill:#FFFFFF;" d="M1916.555,1278.629c0,0-16.892,17.869-16.989,54.227l38.89,5.217L1916.555,1278.629z"/>
		<path style="fill:#FFFFFF;" d="M1998.217,1232.587c0,0,24.234-3.795,49.307,0.259l-1.439,39.113l-27.997,6.67L1998.217,1232.587z"
			/>
		<g>
			
				<rect x="1944.326" y="1292.282" transform="matrix(0.7049 0.7093 -0.7093 0.7049 1622.8655 -945.9813)" style="fill:#4040A0;" width="7.988" height="370.198"/>
			<path style="fill:#EA5F57;" d="M1850.414,1624.094l-42.965,42.699c-12.162,12.087-39.865,4.275-47.663-2.036
				c-6.271-7.844-13.91-35.595-1.748-47.682l42.965-42.7l13.462,13.546c-0.587,3.934-0.005,8.007,1.768,11.653
				c0.929,1.918,2.191,3.727,3.781,5.326s3.384,2.867,5.296,3.808c3.635,1.795,7.706,2.402,11.648,1.847L1850.414,1624.094z"/>
			<path style="fill:#4040A0;" d="M1825.31,1608.708l-35.278,25.99l26.201-35.124c0.929,1.918,2.191,3.727,3.781,5.326
				S1823.397,1607.768,1825.31,1608.708z"/>
			<g>
				<path style="fill:#4040A0;" d="M2090.16,1359.503l-22.501-22.64c-4.461-4.49-4.438-11.772,0.051-16.234l9.883-9.821l4.046,4.07
					l-9.883,9.822c-2.245,2.23-2.256,5.872-0.025,8.117l22.5,22.64c2.231,2.244,5.872,2.256,8.117,0.025l9.883-9.822l4.046,4.07
					l-9.883,9.822C2101.904,1364.015,2094.621,1363.992,2090.16,1359.503z"/>
			</g>
			<path style="fill:#F96058;" d="M2113.202,1349.172l-35.654-35.876c-1.692-1.702-1.683-4.479,0.02-6.172l0,0
				c1.702-1.692,4.479-1.684,6.172,0.019l35.654,35.876c1.692,1.702,1.684,4.479-0.02,6.172l0,0
				C2117.672,1350.883,2114.895,1350.874,2113.202,1349.172z"/>
		</g>
		<path style="fill:#FB9391;" d="M2096.635,1302.633c0,0-9.765,8.62-12.602,12.518c-2.838,3.897-8.48,5.566-6.906,7.876
			c1.573,2.31,9.553-2.421,9.553-2.421s-3.644,9.788-2.453,12.595c1.612,3.8,6.353-4.066,6.353-4.066s-1.115,6.586,0.843,7.375
			c3.137,1.265,5.423-8.033,5.423-8.033s-2.355,9.398,0.546,8.142c4.434-1.922,4.824-7.38,4.824-7.38s-0.817,5.988,0.121,6.716
			c1.371,1.062,3.055,0.55,5.328-6.279c2.274-6.83,2.271-16.654,0.367-24.942L2096.635,1302.633z"/>
		<path style="fill:#FB9391;" d="M1963.174,1436.354c0,0,12.813,2.339,17.256,4.212c4.442,1.872,10.137,0.388,9.981,3.179
			c-0.155,2.79-9.431,2.859-9.431,2.859s6.313,7.507,8.604,9.52c2.291,2.012,5.471,6.65,4.13,8.441
			c-1.342,1.79-11.669-8.644-11.669-8.644s7.832,9.64,6.946,11.556c-0.885,1.917-12.653-8.885-12.653-8.885
			s8.857,9.875,8.876,11.255s-1.747,1.46-5.732-1.275c-3.984-2.734-7.349-6.554-7.349-6.554s5.704,7.404,6.078,8.531
			s0.067,2.953-5.406-1.722s-15.657-16.712-18.306-24.793L1963.174,1436.354z"/>
	</g>
	<path style="fill:#131375;" d="M1397.072,1712.693c0,0,27.753-35.847,124.888-63.6c97.135-27.754,130.67-55.507,169.987-53.193
		c39.317,2.313,80.946,43.941,116.794,41.629s121.42,58.976,116.794,75.164C1925.535,1712.693,1400.541,1712.693,1397.072,1712.693z
		"/>
	<path style="fill:#6181C1;" d="M1901.922,1736.475c0,0-414.54-12.142-449.229,5.203s27.751,48.565,128.351,48.565
		s196.479,15.542,241.577,19.011C1867.72,1812.724,2022.853,1744.641,1901.922,1736.475z"/>
	<path style="fill:#6181C1;" d="M1369.322,1668.563c0,0-104.845-4.626-134.14,7.709s40.088,11.563,80.175,15.418
		C1355.446,1695.544,1428.683,1676.271,1369.322,1668.563z"/>
	<path style="fill:#6181C1;" d="M1322.682,1720.984c0,0-138.765-10.407-179.238,12.721c-40.473,23.127,34.691,41.629,86.728,46.255
		c52.037,4.625,124.888-8.095,127.201-31.223C1359.686,1725.61,1337.715,1721.563,1322.682,1720.984z"/>
	<g>
		<path style="fill:#FB9391;" d="M1026.324,1250.862c0,0-7.528,30.93-19.959,44.485c-12.718,13.867-33.059,27.813-33.059,27.813
			l10,9.668c0,0,28.874-6.869,42.634-20.279c13.76-13.408,16.172-31.999,16.172-31.999L1026.324,1250.862z"/>
		<path style="fill:#FB9391;" d="M1070.872,1591.843c0,0,1.083,26.759,0.885,27.146c-0.198,0.389,2.051,3.683,2.051,3.683
			l8.483,1.292l7.613-3.744c0,0-1.328-24.868-0.624-28.813S1070.872,1591.843,1070.872,1591.843z"/>
		<path style="fill:#060633;" d="M1089.904,1620.22c0,0-9.643,3.658-18.108-1.758c0,0-32.089,12.991-30.858,22.2
			c0,0-1.309,2.788,12.717,1.827c14.025-0.96,35.829-2.153,36.405-2.493C1090.636,1639.657,1093.424,1641.068,1089.904,1620.22z"/>
		<path style="fill:#FB9391;" d="M1145.961,1597.58c0,0,1.362,26.745,1.167,27.135c-0.194,0.391,2.089,3.661,2.089,3.661
			l8.496,1.204l7.574-3.823c0,0-1.588-24.853-0.925-28.806C1165.026,1592.999,1145.961,1597.58,1145.961,1597.58z"/>
		<path style="fill:#060633;" d="M1165.185,1623.963c0,0-9.604,3.759-18.126-1.569c0,0-31.952,13.324-30.625,22.521
			c0,0-1.279,2.802,12.735,1.694c14.014-1.106,35.805-2.526,36.377-2.872S1168.92,1644.773,1165.185,1623.963z"/>
		<path style="fill:#FA7267;" d="M1149.7,1354.318l-98.55-22.936c0,0-9.491,100.394,13.939,279.531l27.731-0.444
			c0,0-1.383-186.571,5.974-196.882c7.357-10.311,14.669,117.468,40.145,199.848l28.621-3.411c0,0-10.196-137.957-10.277-174.145
			C1157.202,1399.693,1149.7,1354.318,1149.7,1354.318z"/>
		<path style="fill:#0B0755;" d="M1126.728,1265.119c0,0,18.558,34.372,19.643,87.701l-30.198-32.682
			c0,0-23.229-35.396-23.361-38.658c-0.133-3.263-2.758-27.575-1.24-30.405c1.518-2.829,7.733-10.707,7.733-10.707
			L1126.728,1265.119z"/>
		<path style="fill:#0B0755;" d="M1050.991,1217.558c0,0-18.114,13.182-23.865,22.402s-12.701,43.077-16.238,46.489l23.133,20.688
			l7.696-16.493l83.698-20.978l15.072,15.1l29.941-25.985c-0.84-0.578-43.883-47.402-56.105-50.749
			C1096.148,1203.054,1050.991,1217.558,1050.991,1217.558z"/>
		<path style="fill:#FA7267;" d="M1039.555,1277.661l10.991,72.684c0,0,103.158,35.398,99.154,3.974
			c-4.005-31.425-44.873-93.157-44.873-93.157L1039.555,1277.661z"/>
		<polygon style="fill:#E55851;" points="1049.819,1284.24 1102.064,1271.541 1112.061,1312.663 1088.877,1331.104 
			1059.814,1325.362 		"/>
		<path style="fill:#FB9391;" d="M1142.448,1283.064c0,0,12.824,16.147,13.04,21.449c0.216,5.301-32.784,30.099-44.124,38.128
			l6.517,7.87c0,0,43.324-8.971,64.111-38.593c0,0,2.625-15.333-16.47-48.881L1142.448,1283.064z"/>
		<g>
			<g>
				<path style="fill:#EA6868;" d="M1025.545,1181.095c0,0-2.725-2.524-4.002-0.917c-3.257,4.098,1.733,7.138,4.626,7.38
					L1025.545,1181.095z"/>
				<path style="fill:#FB9391;" d="M1021.958,1170.213l0.025-0.002c-0.089-0.313-0.178-0.625-0.255-0.944
					c-3.424-14.101,5.72-28.311,20.252-30.843c12.106-2.11,24.157,5.005,28.148,16.627c1.482,4.313,1.728,8.695,0.972,12.809
					c-0.879,6.292-1.688,11.688-2.815,16.283c-1.864,7.602-1.095,15.61,1.994,22.802l2.429,5.656
					c-13.128,11.688-21.819,5.894-21.819,5.894l-2.906-10.759c-0.379-1.405-1.77-2.271-3.203-2.02
					c-0.009,0.002-0.018,0.004-0.027,0.005C1025.76,1209.042,1024.003,1178.635,1021.958,1170.213z"/>
				<path style="fill:#050521;" d="M1050.363,1176.951c-0.306-1.261,0.468-2.531,1.729-2.838c1.261-0.307,2.532,0.468,2.838,1.729
					c0.306,1.261-0.468,2.532-1.729,2.838C1051.94,1178.987,1050.67,1178.213,1050.363,1176.951z"/>
				<path style="fill:#050521;" d="M1029.078,1177.818c-0.306-1.262,0.468-2.532,1.729-2.839c1.262-0.306,2.532,0.468,2.838,1.729
					c0.306,1.262-0.468,2.532-1.729,2.838C1030.655,1179.854,1029.385,1179.079,1029.078,1177.818z"/>
				<path style="fill:#050521;" d="M1057.68,1171.401c0.234-0.057,0.457-0.176,0.641-0.357c0.541-0.534,0.547-1.406,0.013-1.947
					c-1.61-1.632-5.84-3.716-10.333,0.081c-0.581,0.491-0.653,1.36-0.163,1.941c0.491,0.58,1.361,0.651,1.941,0.162
					c3.688-3.121,6.477-0.369,6.594-0.25C1056.725,1171.389,1057.225,1171.512,1057.68,1171.401z"/>
				<path style="fill:#050521;" d="M1035.399,1173.033c0.234-0.057,0.457-0.176,0.641-0.357c0.541-0.534,0.547-1.406,0.013-1.948
					c-1.611-1.632-5.841-3.716-10.333,0.081c-0.581,0.491-0.654,1.36-0.163,1.941c0.492,0.581,1.361,0.653,1.941,0.162
					c3.688-3.119,6.476-0.369,6.593-0.25C1034.445,1173.02,1034.944,1173.144,1035.399,1173.033z"/>
				<polygon style="fill:#0B0755;" points="1073.407,1158.507 1070.781,1176.724 1066.104,1176.915 1058.227,1156.151 				"/>
				<path style="fill:#FB9391;" d="M1065.285,1176.555c0.204-0.891,0.748-1.664,1.49-2.195c1.529-1.095,4.335-2.566,6.888-1.011
					c3.746,2.281-0.377,11.743-7.334,9.228C1066.328,1182.576,1064.2,1181.28,1065.285,1176.555z"/>
				<path style="fill:#EA6868;" d="M1040.634,1188.075c2.455,0.54,4.117-1.116,4.136-1.137c0.159-0.16,0.155-0.418-0.005-0.576
					c-0.161-0.157-0.419-0.156-0.578,0.004c-0.077,0.077-1.938,1.895-4.596,0.442c-0.434-0.236-0.682-0.453-0.737-0.645
					c-0.078-0.271,0.163-0.701,0.496-1.298c0.767-1.372,2.05-3.668,1.565-8.035c-0.026-0.225-0.229-0.387-0.452-0.361
					s-0.386,0.228-0.361,0.451c0.457,4.106-0.7,6.177-1.465,7.547c-0.415,0.74-0.741,1.324-0.568,1.923
					c0.123,0.426,0.472,0.776,1.131,1.136C1039.702,1187.8,1040.181,1187.975,1040.634,1188.075z"/>
				<path style="fill:#FFFFFF;" d="M1050.861,1190.001c0,0-9.039,3.408-15.609,2.092c0,0,3.206,6.809,8.757,6.064
					C1049.56,1197.414,1050.861,1190.001,1050.861,1190.001z"/>
				<path style="fill:#0B0755;" d="M1023.588,1159.727c0,0-2.923,3.333-0.173,18.436c0,0-4.097-16.494-2.694-18.771
					C1022.123,1157.114,1023.588,1159.727,1023.588,1159.727z"/>
			</g>
			<path style="fill:#EA5750;" d="M1020.924,1156.457c0,0,1.519-21.709,27.538-22.447c26.019-0.739,24.945,24.497,24.945,24.497
				s-18.462-2.802-22.161-2.906S1020.924,1156.457,1020.924,1156.457z"/>
			<path style="fill:#FA7267;" d="M1060.584,1156.518c0,0-31.514-11.286-48.645-2.1c-17.132,9.186,8.75,9.629,8.75,9.629
				S1021.58,1156.148,1060.584,1156.518z"/>
		</g>
		<path style="fill:#FA7267;" d="M1039.816,1278.749c0,0-6.316-32.66-6.342-46.67l6.457-5.612c0,0,3.84,34.625,9.916,49.821
			L1039.816,1278.749z"/>
		<path style="fill:#FA7267;" d="M1104.827,1261.161c0,0-10.85-35.344-8.11-53.737l-10.079,1.378c0,0,0.857,37.494,9.283,58.8
			L1104.827,1261.161z"/>
		<g>
			
				<rect x="997.164" y="1355.271" transform="matrix(0.9971 0.0756 -0.0756 0.9971 107.336 -73.5463)" style="fill:#060633;" width="55.401" height="50.706"/>
			
				<rect x="952.445" y="1344.184" transform="matrix(0.9971 0.0756 -0.0756 0.9971 105.0615 -73.8991)" style="fill:#060633;" width="151.927" height="12.52"/>
			
				<rect x="1005.272" y="1380.451" transform="matrix(0.9971 0.0756 -0.0756 0.9971 111.8409 -73.0062)" style="fill:#060633;" width="30.048" height="120.819"/>
			
				<rect x="1008.164" y="1380.286" transform="matrix(0.9971 0.0756 -0.0756 0.9971 116.2486 -72.5586)" style="fill:#060633;" width="15.557" height="235.976"/>
			
				<rect x="1002.768" y="1613.024" transform="matrix(0.9971 0.0756 -0.0756 0.9971 125.8752 -71.4031)" style="fill:#060633;" width="6.808" height="28.171"/>
			
				<rect x="1002.849" y="1361.042" transform="matrix(0.9971 0.0756 -0.0756 0.9971 106.7395 -73.6321)" style="fill:#0B0755;" width="45.44" height="22.949"/>
		</g>
		<path style="fill:#FB9391;" d="M1111.365,1342.642c0,0-11.48,0.3-15.607,1.327c-4.124,1.033-8.88-1.034-9.124,1.416
			c-0.241,2.453,7.827,3.772,7.827,3.772s-6.516,5.685-8.787,7.127c-2.267,1.438-5.668,5.052-4.743,6.791
			c0.929,1.744,11.34-5.944,11.34-5.944s-8.131,7.332-7.618,9.123c0.509,1.787,12.226-6.025,12.226-6.025s-9.054,7.4-9.256,8.602
			c-0.202,1.201,1.321,1.511,5.168-0.334c3.842-1.841,7.286-4.713,7.286-4.713s-5.968,5.679-6.447,6.608
			c-0.483,0.933-0.463,2.563,4.938-0.765c5.405-3.332,15.907-12.437,19.315-19.115L1111.365,1342.642L1111.365,1342.642z"/>
		<path style="fill:#FB9391;" d="M982.898,1326.697c0,0,3.533,10.927,3.934,15.161c0.396,4.232,3.927,8.031,1.698,9.075
			c-2.234,1.043-6.16-6.128-6.16-6.128s-2.166,5.606-2.772,8.228c-0.604,2.615-1.685,2.723-3.633,2.429
			c-1.953-0.297-0.387-5.94-0.387-5.94s-1.948,5.996-4.451,5.217c-1.775-0.552-0.002-8.533-0.002-8.533s-1.713,6.609-2.779,7.199
			c-1.065,0.589-2.734,1.707-2.947-1.224c-0.309-4.249,1.31-7.81,1.31-7.81s-2.483,6.882-3.201,7.643
			c-0.719,0.767-3.153,1.923-1.809-4.277c1.347-6.206,6.443-19.136,11.609-24.569L982.898,1326.697L982.898,1326.697z"/>
	</g>
	<g>
		<g>
			<rect x="697.209" y="1648.305" style="fill:#060633;" width="5.119" height="163.865"/>
			
				<rect x="822.892" y="1623.529" transform="matrix(-1.836970e-16 1 -1 -1.836970e-16 2573.9683 923.0659)" style="fill:#060633;" width="5.118" height="249.977"/>
			<rect x="948.381" y="1648.305" style="fill:#060633;" width="5.119" height="163.865"/>
			<rect x="694.193" y="1809.428" style="fill:#060633;" width="11.242" height="4.113"/>
			<rect x="945.228" y="1809.428" style="fill:#060633;" width="11.242" height="4.113"/>
		</g>
		<g>
			<rect x="680.91" y="1643.983" style="fill:#FA7267;" width="291.195" height="54.292"/>
			<polygon style="fill:#060633;" points="716.974,1643.983 680.91,1684.687 680.91,1643.983 			"/>
			<polygon style="fill:#060633;" points="784.154,1643.983 736.047,1698.275 698.317,1698.275 746.413,1643.983 			"/>
			<polygon style="fill:#060633;" points="851.334,1643.983 803.227,1698.275 765.497,1698.275 813.593,1643.983 			"/>
			<polygon style="fill:#060633;" points="918.515,1643.983 870.408,1698.275 832.678,1698.275 880.773,1643.983 			"/>
			<polygon style="fill:#060633;" points="972.105,1643.983 972.105,1659.316 937.588,1698.275 899.858,1698.275 947.954,1643.983 
							"/>
		</g>
	</g>
	<g>
		<path style="fill:#FA7267;" d="M2838.415,1595.337c0,0-109.474,1.156-108.317,0l9.332-26.597l9.933-28.331l7.505-21.394
			l9.934-28.331l11.969-34.113h11.32l11.876,34.113l9.876,28.331l7.447,21.394l9.863,28.331L2838.415,1595.337z"/>
		<rect x="2722.003" y="1591.289" style="fill:#E8554D;" width="121.997" height="7.517"/>
		<polygon style="fill:#FFFFFF;" points="2811.842,1519.016 2756.867,1519.016 2766.801,1490.685 2801.966,1490.685 		"/>
		<polygon style="fill:#FFFFFF;" points="2829.152,1568.74 2739.43,1568.74 2749.362,1540.409 2819.289,1540.409 		"/>
	</g>
</g>
</svg>
