<svg width="180" height="45" viewBox="0 0 180 45" fill="none" xmlns="http://www.w3.org/2000/svg">
<path d="M11 4L8.5 7H12.25V4H11ZM14.75 4V7H18.5L16 4H14.75ZM1 7.5V8H3.5V8.5H6V8H21L21.075 8.5H23.5V8H26V7.5H1ZM7.25 8.5L2.675 14H12.25V8.5H7.25ZM14.75 8.5V14H24.325L19.75 8.5H14.75Z" fill="#13008B"/>
<path d="M7.45011 44H0.837891L9.42631 18.5455H17.617L26.2054 44H19.5932L13.6149 24.9588H13.416L7.45011 44ZM6.56765 33.9822H20.3887V38.6555H6.56765V33.9822ZM28.946 44V24.9091H34.8498V28.3892H35.0487C35.3967 27.1297 35.9643 26.1934 36.7514 25.5803C37.5386 24.9588 38.4542 24.6481 39.4982 24.6481C39.7799 24.6481 40.07 24.6688 40.3683 24.7102C40.6665 24.7434 40.9441 24.7972 41.201 24.8718V30.1541C40.911 30.0547 40.5298 29.976 40.0575 29.918C39.5935 29.86 39.1792 29.831 38.8146 29.831C38.0938 29.831 37.4433 29.9925 36.8633 30.3157C36.2915 30.6306 35.84 31.0739 35.5085 31.6456C35.1854 32.209 35.0238 32.8719 35.0238 33.6342V44H28.946ZM51.5978 44.3604C49.5843 44.3604 47.8567 43.9461 46.415 43.1175C44.9815 42.2889 43.8794 41.1372 43.1088 39.6623C42.3382 38.1791 41.9529 36.4639 41.9529 34.5167C41.9529 32.5612 42.3382 30.846 43.1088 29.3711C43.8877 27.8879 44.9939 26.732 46.4274 25.9034C47.8691 25.0748 49.5885 24.6605 51.5854 24.6605C53.3503 24.6605 54.8874 24.9795 56.1966 25.6175C57.514 26.2556 58.5415 27.1587 59.2789 28.3271C60.0247 29.4871 60.4183 30.8501 60.4597 32.4162H54.7797C54.6636 31.4384 54.3322 30.672 53.7853 30.1168C53.2467 29.5617 52.5424 29.2841 51.6724 29.2841C50.9681 29.2841 50.3508 29.483 49.8205 29.8807C49.2902 30.2701 48.8759 30.8501 48.5776 31.6207C48.2876 32.383 48.1426 33.3277 48.1426 34.4545C48.1426 35.5814 48.2876 36.5343 48.5776 37.3132C48.8759 38.0838 49.2902 38.668 49.8205 39.0657C50.3508 39.4551 50.9681 39.6499 51.6724 39.6499C52.2359 39.6499 52.733 39.5297 53.1639 39.2894C53.603 39.0491 53.9635 38.697 54.2452 38.233C54.5269 37.7607 54.7051 37.1889 54.7797 36.5178H60.4597C60.4017 38.0921 60.0081 39.4676 59.2789 40.6442C58.5581 41.8208 57.543 42.7364 56.2338 43.391C54.9329 44.0373 53.3876 44.3604 51.5978 44.3604ZM69.6478 33.1122V44H63.57V18.5455H69.449V28.4141H69.6602C70.0911 27.2375 70.7954 26.3177 71.7732 25.6548C72.7592 24.992 73.9648 24.6605 75.39 24.6605C76.7323 24.6605 77.9007 24.9588 78.895 25.5554C79.8893 26.1437 80.6599 26.9764 81.2068 28.0536C81.7619 29.1308 82.0354 30.3903 82.0271 31.832V44H75.9493V33.0252C75.9576 31.9646 75.6924 31.136 75.1539 30.5394C74.6153 29.9428 73.8571 29.6445 72.8794 29.6445C72.2413 29.6445 71.6779 29.7854 71.189 30.0671C70.7084 30.3406 70.3314 30.7341 70.058 31.2479C69.7928 31.7616 69.6561 32.383 69.6478 33.1122ZM85.821 44V24.9091H91.8988V44H85.821ZM88.8661 22.6843C88.0127 22.6843 87.2794 22.4026 86.6662 21.8391C86.053 21.2674 85.7464 20.5797 85.7464 19.7759C85.7464 18.9805 86.053 18.301 86.6662 17.7376C87.2794 17.1658 88.0127 16.88 88.8661 16.88C89.7279 16.88 90.4612 17.1658 91.0661 17.7376C91.6792 18.301 91.9858 18.9805 91.9858 19.7759C91.9858 20.5797 91.6792 21.2674 91.0661 21.8391C90.4612 22.4026 89.7279 22.6843 88.8661 22.6843ZM94.9346 23.5419V18.5455H116.449V23.5419H108.731V44H102.665V23.5419H94.9346ZM125.609 44.3604C123.612 44.3604 121.889 43.9669 120.439 43.1797C118.997 42.3842 117.887 41.2532 117.108 39.7866C116.337 38.3117 115.952 36.5592 115.952 34.5291C115.952 32.5571 116.341 30.8336 117.12 29.3587C117.899 27.8755 118.997 26.7237 120.414 25.9034C121.831 25.0748 123.501 24.6605 125.423 24.6605C126.782 24.6605 128.025 24.8718 129.152 25.2944C130.278 25.717 131.252 26.3426 132.072 27.1712C132.893 27.9998 133.531 29.0231 133.986 30.2411C134.442 31.4509 134.67 32.8388 134.67 34.4048V35.9212H118.077V32.3913H129.015C129.007 31.745 128.853 31.1692 128.555 30.6637C128.257 30.1583 127.847 29.7647 127.324 29.483C126.811 29.1929 126.218 29.0479 125.547 29.0479C124.868 29.0479 124.259 29.2012 123.72 29.5078C123.181 29.8061 122.755 30.2163 122.44 30.7383C122.125 31.252 121.959 31.8362 121.943 32.4908V36.0827C121.943 36.8616 122.096 37.5452 122.403 38.1335C122.709 38.7135 123.144 39.1651 123.708 39.4883C124.271 39.8114 124.942 39.973 125.721 39.973C126.26 39.973 126.749 39.8984 127.188 39.7493C127.627 39.6001 128.004 39.3806 128.319 39.0906C128.634 38.8005 128.87 38.4442 129.027 38.0217L134.608 38.1832C134.376 39.4344 133.866 40.524 133.079 41.4521C132.3 42.3718 131.277 43.0885 130.009 43.6023C128.741 44.1077 127.275 44.3604 125.609 44.3604ZM146.686 44.3604C144.672 44.3604 142.945 43.9461 141.503 43.1175C140.069 42.2889 138.967 41.1372 138.197 39.6623C137.426 38.1791 137.041 36.4639 137.041 34.5167C137.041 32.5612 137.426 30.846 138.197 29.3711C138.976 27.8879 140.082 26.732 141.515 25.9034C142.957 25.0748 144.676 24.6605 146.673 24.6605C148.438 24.6605 149.975 24.9795 151.284 25.6175C152.602 26.2556 153.629 27.1587 154.367 28.3271C155.113 29.4871 155.506 30.8501 155.548 32.4162H149.868C149.752 31.4384 149.42 30.672 148.873 30.1168C148.335 29.5617 147.63 29.2841 146.76 29.2841C146.056 29.2841 145.439 29.483 144.908 29.8807C144.378 30.2701 143.964 30.8501 143.665 31.6207C143.375 32.383 143.23 33.3277 143.23 34.4545C143.23 35.5814 143.375 36.5343 143.665 37.3132C143.964 38.0838 144.378 38.668 144.908 39.0657C145.439 39.4551 146.056 39.6499 146.76 39.6499C147.324 39.6499 147.821 39.5297 148.252 39.2894C148.691 39.0491 149.051 38.697 149.333 38.233C149.615 37.7607 149.793 37.1889 149.868 36.5178H155.548C155.49 38.0921 155.096 39.4676 154.367 40.6442C153.646 41.8208 152.631 42.7364 151.322 43.391C150.021 44.0373 148.475 44.3604 146.686 44.3604ZM164.736 33.1122V44H158.658V18.5455H164.537V28.4141H164.748C165.179 27.2375 165.883 26.3177 166.861 25.6548C167.847 24.992 169.053 24.6605 170.478 24.6605C171.82 24.6605 172.989 24.9588 173.983 25.5554C174.977 26.1437 175.748 26.9764 176.295 28.0536C176.85 29.1308 177.123 30.3903 177.115 31.832V44H171.037V33.0252C171.045 31.9646 170.78 31.136 170.242 30.5394C169.703 29.9428 168.945 29.6445 167.967 29.6445C167.329 29.6445 166.766 29.7854 166.277 30.0671C165.796 30.3406 165.419 30.7341 165.146 31.2479C164.881 31.7616 164.744 32.383 164.736 33.1122Z" fill="#13008B"/>
<path d="M31.05 14H29.7574L33.496 3.81818H34.7687L38.5074 14H37.2148L34.1721 5.42898H34.0926L31.05 14ZM31.5273 10.0227H36.7375V11.1165H31.5273V10.0227ZM45.3433 8.07386L44.2893 8.37216C44.223 8.1965 44.1253 8.0258 43.996 7.86009C43.8701 7.69105 43.6977 7.55185 43.479 7.44247C43.2602 7.3331 42.9801 7.27841 42.6388 7.27841C42.1714 7.27841 41.782 7.38613 41.4704 7.60156C41.1622 7.81368 41.0081 8.08381 41.0081 8.41193C41.0081 8.7036 41.1141 8.93395 41.3263 9.10298C41.5384 9.27202 41.8698 9.41288 42.3206 9.52557L43.4541 9.80398C44.1369 9.9697 44.6456 10.2232 44.9804 10.5646C45.3151 10.9027 45.4825 11.3385 45.4825 11.8722C45.4825 12.3097 45.3566 12.7008 45.1047 13.0455C44.8561 13.3902 44.5081 13.6619 44.0606 13.8608C43.6132 14.0597 43.0928 14.1591 42.4996 14.1591C41.7207 14.1591 41.076 13.9901 40.5656 13.652C40.0552 13.3139 39.732 12.8201 39.5961 12.1705L40.7098 11.892C40.8158 12.303 41.0164 12.6113 41.3113 12.8168C41.6096 13.0223 41.9991 13.125 42.4797 13.125C43.0265 13.125 43.4607 13.009 43.7822 12.777C44.107 12.5417 44.2694 12.2599 44.2694 11.9318C44.2694 11.6667 44.1766 11.4446 43.991 11.2656C43.8054 11.0833 43.5204 10.9474 43.1359 10.858L41.8632 10.5597C41.1639 10.3939 40.6501 10.1371 40.322 9.78906C39.9972 9.43774 39.8348 8.99858 39.8348 8.47159C39.8348 8.04072 39.9558 7.65956 40.1977 7.32812C40.443 6.99669 40.7761 6.73651 41.197 6.54758C41.6212 6.35866 42.1018 6.2642 42.6388 6.2642C43.3944 6.2642 43.9877 6.42992 44.4186 6.76136C44.8528 7.0928 45.161 7.5303 45.3433 8.07386ZM47.0299 14V13.1051L51.3651 7.53693V7.45739H47.1691V6.36364H52.8765V7.2983L48.6606 12.8267V12.9062H53.0157V14H47.0299ZM58.2235 6.36364V7.35795H54.107V6.36364H58.2235ZM55.3399 14V5.30966C55.3399 4.87216 55.4427 4.50758 55.6482 4.21591C55.8537 3.92424 56.1205 3.70549 56.4486 3.55966C56.7767 3.41383 57.1231 3.34091 57.4877 3.34091C57.776 3.34091 58.0113 3.36411 58.1936 3.41051C58.3759 3.45691 58.5118 3.5 58.6013 3.53977L58.2632 4.55398C58.2036 4.53409 58.1207 4.50923 58.0146 4.4794C57.9119 4.44957 57.776 4.43466 57.607 4.43466C57.2192 4.43466 56.9391 4.53243 56.7668 4.72798C56.5977 4.92353 56.5132 5.21023 56.5132 5.58807V14H55.3399ZM61.8962 14.179C61.4123 14.179 60.9732 14.0878 60.5787 13.9055C60.1843 13.7199 59.8711 13.4531 59.6391 13.1051C59.4071 12.7538 59.2911 12.3295 59.2911 11.8324C59.2911 11.3949 59.3773 11.0402 59.5496 10.7685C59.722 10.4934 59.9523 10.2779 60.2407 10.1222C60.529 9.96638 60.8472 9.85038 61.1952 9.77415C61.5465 9.6946 61.8995 9.63163 62.2542 9.58523C62.7182 9.52557 63.0944 9.48082 63.3827 9.45099C63.6744 9.41785 63.8865 9.36316 64.0191 9.28693C64.155 9.2107 64.2229 9.07812 64.2229 8.8892V8.84943C64.2229 8.3589 64.0887 7.97775 63.8202 7.70597C63.5551 7.43419 63.1524 7.2983 62.6121 7.2983C62.052 7.2983 61.6128 7.42093 61.2947 7.66619C60.9765 7.91146 60.7528 8.1733 60.6235 8.4517L59.5099 8.05398C59.7087 7.58996 59.9739 7.22869 60.3053 6.97017C60.6401 6.70833 61.0046 6.52604 61.3991 6.4233C61.7968 6.31723 62.1879 6.2642 62.5724 6.2642C62.8176 6.2642 63.0993 6.29403 63.4175 6.35369C63.739 6.41004 64.0489 6.5277 64.3472 6.70668C64.6488 6.88565 64.8991 7.15578 65.0979 7.51705C65.2968 7.87831 65.3962 8.36222 65.3962 8.96875V14H64.2229V12.9659H64.1633C64.0837 13.1316 63.9511 13.3089 63.7655 13.4979C63.5799 13.6868 63.333 13.8475 63.0248 13.9801C62.7165 14.1127 62.3403 14.179 61.8962 14.179ZM62.0752 13.125C62.5392 13.125 62.9303 13.0339 63.2485 12.8516C63.57 12.6693 63.8119 12.4339 63.9743 12.1456C64.1401 11.8572 64.2229 11.554 64.2229 11.2358V10.1619C64.1732 10.2216 64.0638 10.2763 63.8948 10.326C63.7291 10.3724 63.5368 10.4138 63.3181 10.4503C63.1027 10.4834 62.8922 10.5133 62.6867 10.5398C62.4845 10.563 62.3205 10.5829 62.1945 10.5994C61.8896 10.6392 61.6046 10.7038 61.3394 10.7933C61.0776 10.8795 60.8654 11.0104 60.703 11.1861C60.5439 11.3584 60.4644 11.5937 60.4644 11.892C60.4644 12.2997 60.6152 12.608 60.9168 12.8168C61.2217 13.0223 61.6079 13.125 62.0752 13.125ZM68.711 3.81818V14H67.5377V3.81818H68.711ZM74.181 6.36364V7.35795H70.2236V6.36364H74.181ZM71.377 4.53409H72.5503V11.8125C72.5503 12.1439 72.5984 12.3925 72.6945 12.5582C72.7939 12.7206 72.9199 12.83 73.0724 12.8864C73.2281 12.9394 73.3922 12.9659 73.5645 12.9659C73.6938 12.9659 73.7999 12.9593 73.8827 12.946C73.9656 12.9295 74.0319 12.9162 74.0816 12.9062L74.3202 13.9602C74.2407 13.9901 74.1296 14.0199 73.9871 14.0497C73.8446 14.0829 73.664 14.0994 73.4452 14.0994C73.1138 14.0994 72.789 14.0282 72.4708 13.8857C72.1559 13.7431 71.8941 13.526 71.6853 13.2344C71.4798 12.9427 71.377 12.5748 71.377 12.1307V4.53409ZM78.9662 14.1591C78.2768 14.1591 77.6719 13.995 77.1515 13.6669C76.6345 13.3388 76.2301 12.8797 75.9385 12.2898C75.6501 11.6998 75.5059 11.0104 75.5059 10.2216C75.5059 9.42614 75.6501 8.73177 75.9385 8.13849C76.2301 7.54522 76.6345 7.08452 77.1515 6.75639C77.6719 6.42827 78.2768 6.2642 78.9662 6.2642C79.6556 6.2642 80.2588 6.42827 80.7758 6.75639C81.2962 7.08452 81.7006 7.54522 81.9889 8.13849C82.2806 8.73177 82.4264 9.42614 82.4264 10.2216C82.4264 11.0104 82.2806 11.6998 81.9889 12.2898C81.7006 12.8797 81.2962 13.3388 80.7758 13.6669C80.2588 13.995 79.6556 14.1591 78.9662 14.1591ZM78.9662 13.1051C79.4898 13.1051 79.9207 12.9709 80.2588 12.7024C80.5969 12.4339 80.8471 12.081 81.0095 11.6435C81.1719 11.206 81.2531 10.732 81.2531 10.2216C81.2531 9.71117 81.1719 9.23556 81.0095 8.79474C80.8471 8.35393 80.5969 7.99763 80.2588 7.72585C79.9207 7.45407 79.4898 7.31818 78.9662 7.31818C78.4425 7.31818 78.0116 7.45407 77.6736 7.72585C77.3355 7.99763 77.0853 8.35393 76.9229 8.79474C76.7604 9.23556 76.6792 9.71117 76.6792 10.2216C76.6792 10.732 76.7604 11.206 76.9229 11.6435C77.0853 12.081 77.3355 12.4339 77.6736 12.7024C78.0116 12.9709 78.4425 13.1051 78.9662 13.1051ZM83.9987 14V13.1051L88.3339 7.53693V7.45739H84.1379V6.36364H89.8453V7.2983L85.6294 12.8267V12.9062H89.9845V14H83.9987ZM94.0388 14.179C93.5549 14.179 93.1157 14.0878 92.7213 13.9055C92.3269 13.7199 92.0137 13.4531 91.7817 13.1051C91.5497 12.7538 91.4337 12.3295 91.4337 11.8324C91.4337 11.3949 91.5199 11.0402 91.6922 10.7685C91.8646 10.4934 92.0949 10.2779 92.3833 10.1222C92.6716 9.96638 92.9898 9.85038 93.3378 9.77415C93.6891 9.6946 94.0421 9.63163 94.3968 9.58523C94.8608 9.52557 95.2369 9.48082 95.5253 9.45099C95.817 9.41785 96.0291 9.36316 96.1617 9.28693C96.2976 9.2107 96.3655 9.07812 96.3655 8.8892V8.84943C96.3655 8.3589 96.2313 7.97775 95.9628 7.70597C95.6977 7.43419 95.295 7.2983 94.7547 7.2983C94.1946 7.2983 93.7554 7.42093 93.4372 7.66619C93.1191 7.91146 92.8953 8.1733 92.7661 8.4517L91.6524 8.05398C91.8513 7.58996 92.1164 7.22869 92.4479 6.97017C92.7826 6.70833 93.1472 6.52604 93.5416 6.4233C93.9394 6.31723 94.3305 6.2642 94.7149 6.2642C94.9602 6.2642 95.2419 6.29403 95.5601 6.35369C95.8816 6.41004 96.1915 6.5277 96.4898 6.70668C96.7914 6.88565 97.0416 7.15578 97.2405 7.51705C97.4394 7.87831 97.5388 8.36222 97.5388 8.96875V14H96.3655V12.9659H96.3058C96.2263 13.1316 96.0937 13.3089 95.9081 13.4979C95.7225 13.6868 95.4756 13.8475 95.1673 13.9801C94.8591 14.1127 94.4829 14.179 94.0388 14.179ZM94.2178 13.125C94.6818 13.125 95.0729 13.0339 95.3911 12.8516C95.7126 12.6693 95.9545 12.4339 96.1169 12.1456C96.2826 11.8572 96.3655 11.554 96.3655 11.2358V10.1619C96.3158 10.2216 96.2064 10.2763 96.0374 10.326C95.8717 10.3724 95.6794 10.4138 95.4607 10.4503C95.2452 10.4834 95.0348 10.5133 94.8293 10.5398C94.6271 10.563 94.463 10.5829 94.3371 10.5994C94.0322 10.6392 93.7471 10.7038 93.482 10.7933C93.2201 10.8795 93.008 11.0104 92.8456 11.1861C92.6865 11.3584 92.607 11.5937 92.607 11.892C92.607 12.2997 92.7578 12.608 93.0594 12.8168C93.3643 13.0223 93.7504 13.125 94.2178 13.125ZM94.2575 5.32955L95.4706 3.02273H96.8428L95.2916 5.32955H94.2575ZM105.089 8.07386L104.035 8.37216C103.969 8.1965 103.871 8.0258 103.742 7.86009C103.616 7.69105 103.444 7.55185 103.225 7.44247C103.006 7.3331 102.726 7.27841 102.385 7.27841C101.918 7.27841 101.528 7.38613 101.217 7.60156C100.908 7.81368 100.754 8.08381 100.754 8.41193C100.754 8.7036 100.86 8.93395 101.072 9.10298C101.284 9.27202 101.616 9.41288 102.067 9.52557L103.2 9.80398C103.883 9.9697 104.392 10.2232 104.726 10.5646C105.061 10.9027 105.229 11.3385 105.229 11.8722C105.229 12.3097 105.103 12.7008 104.851 13.0455C104.602 13.3902 104.254 13.6619 103.807 13.8608C103.359 14.0597 102.839 14.1591 102.246 14.1591C101.467 14.1591 100.822 13.9901 100.312 13.652C99.8013 13.3139 99.4781 12.8201 99.3422 12.1705L100.456 11.892C100.562 12.303 100.762 12.6113 101.057 12.8168C101.356 13.0223 101.745 13.125 102.226 13.125C102.773 13.125 103.207 13.009 103.528 12.777C103.853 12.5417 104.016 12.2599 104.016 11.9318C104.016 11.6667 103.923 11.4446 103.737 11.2656C103.552 11.0833 103.266 10.9474 102.882 10.858L101.609 10.5597C100.91 10.3939 100.396 10.1371 100.068 9.78906C99.7433 9.43774 99.5809 8.99858 99.5809 8.47159C99.5809 8.04072 99.7019 7.65956 99.9438 7.32812C100.189 6.99669 100.522 6.73651 100.943 6.54758C101.367 6.35866 101.848 6.2642 102.385 6.2642C103.141 6.2642 103.734 6.42992 104.165 6.76136C104.599 7.0928 104.907 7.5303 105.089 8.07386ZM113.816 14.1392C113.146 14.1392 112.57 14.0166 112.086 13.7713C111.602 13.526 111.229 13.1896 110.967 12.7621C110.705 12.3345 110.574 11.8456 110.574 11.2955C110.574 10.8712 110.664 10.495 110.843 10.1669C111.025 9.83546 111.275 9.52888 111.593 9.24716C111.915 8.96212 112.285 8.67708 112.702 8.39205L114.174 7.2983C114.462 7.10937 114.692 6.9072 114.865 6.69176C115.04 6.47633 115.128 6.1946 115.128 5.84659C115.128 5.58807 115.014 5.33783 114.785 5.09588C114.56 4.85393 114.263 4.73295 113.895 4.73295C113.637 4.73295 113.408 4.79924 113.209 4.93182C113.014 5.06108 112.86 5.2268 112.747 5.42898C112.638 5.62784 112.583 5.83333 112.583 6.04545C112.583 6.28409 112.647 6.52604 112.777 6.77131C112.909 7.01326 113.077 7.26184 113.279 7.51705C113.484 7.76894 113.696 8.02746 113.915 8.29261L118.589 14H117.177L113.319 9.34659C112.961 8.91572 112.636 8.52462 112.344 8.1733C112.053 7.82197 111.821 7.47562 111.648 7.13423C111.476 6.79285 111.39 6.4233 111.39 6.02557C111.39 5.56818 111.491 5.16714 111.693 4.82244C111.898 4.47443 112.185 4.20431 112.553 4.01207C112.924 3.81652 113.358 3.71875 113.856 3.71875C114.366 3.71875 114.805 3.81818 115.173 4.01705C115.541 4.21259 115.824 4.47277 116.023 4.79758C116.222 5.11908 116.321 5.46875 116.321 5.84659C116.321 6.33381 116.2 6.75639 115.959 7.11435C115.717 7.4723 115.387 7.8054 114.969 8.11364L112.941 9.625C112.483 9.96307 112.174 10.2912 112.011 10.6094C111.849 10.9276 111.767 11.1562 111.767 11.2955C111.767 11.6136 111.85 11.9103 112.016 12.1854C112.182 12.4605 112.415 12.6825 112.717 12.8516C113.019 13.0206 113.372 13.1051 113.776 13.1051C114.16 13.1051 114.535 13.0239 114.9 12.8615C115.264 12.6958 115.594 12.4571 115.889 12.1456C116.187 11.834 116.423 11.4595 116.595 11.022C116.771 10.5845 116.858 10.0923 116.858 9.54545H117.992C117.992 10.2216 117.914 10.7734 117.758 11.201C117.602 11.6286 117.427 11.9633 117.231 12.2053C117.036 12.4472 116.878 12.6278 116.759 12.7472C116.719 12.7969 116.683 12.8466 116.65 12.8963C116.616 12.946 116.58 12.9957 116.54 13.0455C116.212 13.4134 115.798 13.6884 115.297 13.8707C114.797 14.0497 114.303 14.1392 113.816 14.1392ZM130.666 3.81818H131.899V10.5597C131.899 11.2557 131.735 11.8771 131.407 12.424C131.082 12.9676 130.623 13.3968 130.029 13.7116C129.436 14.0232 128.74 14.179 127.941 14.179C127.143 14.179 126.447 14.0232 125.853 13.7116C125.26 13.3968 124.799 12.9676 124.471 12.424C124.146 11.8771 123.984 11.2557 123.984 10.5597V3.81818H125.217V10.4602C125.217 10.9574 125.326 11.3999 125.545 11.7876C125.764 12.1721 126.075 12.4754 126.48 12.6974C126.887 12.9162 127.375 13.0256 127.941 13.0256C128.508 13.0256 128.995 12.9162 129.403 12.6974C129.811 12.4754 130.122 12.1721 130.338 11.7876C130.556 11.3999 130.666 10.9574 130.666 10.4602V3.81818ZM127.404 2.78409L128.617 0.477272H129.99L128.438 2.78409H127.404ZM137.523 6.36364V7.35795H133.565V6.36364H137.523ZM134.719 4.53409H135.892V11.8125C135.892 12.1439 135.94 12.3925 136.036 12.5582C136.136 12.7206 136.262 12.83 136.414 12.8864C136.57 12.9394 136.734 12.9659 136.906 12.9659C137.036 12.9659 137.142 12.9593 137.225 12.946C137.307 12.9295 137.374 12.9162 137.423 12.9062L137.662 13.9602C137.582 13.9901 137.471 14.0199 137.329 14.0497C137.186 14.0829 137.006 14.0994 136.787 14.0994C136.456 14.0994 136.131 14.0282 135.813 13.8857C135.498 13.7431 135.236 13.526 135.027 13.2344C134.822 12.9427 134.719 12.5748 134.719 12.1307V4.53409ZM142.407 14.1591C141.672 14.1591 141.037 13.9967 140.503 13.6719C139.973 13.3438 139.564 12.8864 139.275 12.2997C138.99 11.7098 138.848 11.0237 138.848 10.2415C138.848 9.45928 138.99 8.76989 139.275 8.1733C139.564 7.57339 139.965 7.10606 140.478 6.77131C140.995 6.43324 141.599 6.2642 142.288 6.2642C142.686 6.2642 143.079 6.33049 143.466 6.46307C143.854 6.59564 144.207 6.81108 144.525 7.10938C144.843 7.40436 145.097 7.79545 145.286 8.28267C145.475 8.76989 145.569 9.36979 145.569 10.0824V10.5795H139.683V9.56534H144.376C144.376 9.13447 144.29 8.75 144.118 8.41193C143.949 8.07386 143.707 7.80705 143.392 7.61151C143.08 7.41596 142.712 7.31818 142.288 7.31818C141.821 7.31818 141.416 7.43419 141.075 7.66619C140.737 7.89489 140.477 8.19318 140.294 8.56108C140.112 8.92898 140.021 9.32339 140.021 9.74432V10.4205C140.021 10.9972 140.12 11.486 140.319 11.8871C140.522 12.2848 140.802 12.5881 141.16 12.7969C141.517 13.0024 141.933 13.1051 142.407 13.1051C142.716 13.1051 142.994 13.062 143.243 12.9759C143.495 12.8864 143.712 12.7538 143.894 12.5781C144.076 12.3991 144.217 12.1771 144.316 11.9119L145.45 12.2301C145.331 12.6146 145.13 12.9527 144.848 13.2443C144.567 13.5327 144.219 13.758 143.804 13.9205C143.39 14.0795 142.924 14.1591 142.407 14.1591ZM141.691 5.32955L142.905 3.02273H144.277L142.726 5.32955H141.691ZM147.354 16.8636V6.36364H148.488V7.5767H148.627C148.713 7.44413 148.832 7.27509 148.985 7.0696C149.141 6.8608 149.363 6.67519 149.651 6.51278C149.943 6.34706 150.337 6.2642 150.834 6.2642C151.477 6.2642 152.044 6.42495 152.535 6.74645C153.025 7.06794 153.408 7.52367 153.683 8.11364C153.958 8.7036 154.096 9.39962 154.096 10.2017C154.096 11.0104 153.958 11.7114 153.683 12.3047C153.408 12.8946 153.027 13.352 152.54 13.6768C152.052 13.9983 151.491 14.1591 150.854 14.1591C150.364 14.1591 149.971 14.0779 149.676 13.9155C149.381 13.7498 149.154 13.5625 148.995 13.3537C148.836 13.1416 148.713 12.9659 148.627 12.8267H148.527V16.8636H147.354ZM148.508 10.1818C148.508 10.7585 148.592 11.2673 148.761 11.7081C148.93 12.1456 149.177 12.4886 149.502 12.7372C149.827 12.9825 150.224 13.1051 150.695 13.1051C151.186 13.1051 151.595 12.9759 151.923 12.7173C152.254 12.4555 152.503 12.1042 152.669 11.6634C152.838 11.2192 152.922 10.7254 152.922 10.1818C152.922 9.64489 152.839 9.16098 152.674 8.73011C152.511 8.29593 152.264 7.95289 151.933 7.70099C151.605 7.44579 151.192 7.31818 150.695 7.31818C150.218 7.31818 149.817 7.43916 149.492 7.68111C149.167 7.91974 148.922 8.2545 148.756 8.68537C148.59 9.11293 148.508 9.61174 148.508 10.1818ZM155.885 14V6.36364H157.059V14H155.885ZM155.945 5.32955L157.158 3.02273H158.53L156.979 5.32955H155.945ZM162.529 6.36364V7.35795H158.571V6.36364H162.529ZM159.725 4.53409H160.898V11.8125C160.898 12.1439 160.946 12.3925 161.042 12.5582C161.142 12.7206 161.268 12.83 161.42 12.8864C161.576 12.9394 161.74 12.9659 161.912 12.9659C162.041 12.9659 162.148 12.9593 162.23 12.946C162.313 12.9295 162.38 12.9162 162.429 12.9062L162.668 13.9602C162.588 13.9901 162.477 14.0199 162.335 14.0497C162.192 14.0829 162.012 14.0994 161.793 14.0994C161.461 14.0994 161.137 14.0282 160.818 13.8857C160.504 13.7431 160.242 13.526 160.033 13.2344C159.827 12.9427 159.725 12.5748 159.725 12.1307V4.53409ZM167.413 14.1591C166.677 14.1591 166.043 13.9967 165.509 13.6719C164.979 13.3438 164.57 12.8864 164.281 12.2997C163.996 11.7098 163.854 11.0237 163.854 10.2415C163.854 9.45928 163.996 8.76989 164.281 8.1733C164.57 7.57339 164.971 7.10606 165.484 6.77131C166.001 6.43324 166.605 6.2642 167.294 6.2642C167.692 6.2642 168.084 6.33049 168.472 6.46307C168.86 6.59564 169.213 6.81108 169.531 7.10938C169.849 7.40436 170.103 7.79545 170.292 8.28267C170.481 8.76989 170.575 9.36979 170.575 10.0824V10.5795H164.689V9.56534H169.382C169.382 9.13447 169.296 8.75 169.123 8.41193C168.954 8.07386 168.713 7.80705 168.398 7.61151C168.086 7.41596 167.718 7.31818 167.294 7.31818C166.827 7.31818 166.422 7.43419 166.081 7.66619C165.743 7.89489 165.483 8.19318 165.3 8.56108C165.118 8.92898 165.027 9.32339 165.027 9.74432V10.4205C165.027 10.9972 165.126 11.486 165.325 11.8871C165.527 12.2848 165.807 12.5881 166.165 12.7969C166.523 13.0024 166.939 13.1051 167.413 13.1051C167.722 13.1051 168 13.062 168.248 12.9759C168.5 12.8864 168.717 12.7538 168.9 12.5781C169.082 12.3991 169.223 12.1771 169.322 11.9119L170.456 12.2301C170.337 12.6146 170.136 12.9527 169.854 13.2443C169.573 13.5327 169.225 13.758 168.81 13.9205C168.396 14.0795 167.93 14.1591 167.413 14.1591ZM166.697 5.32955L167.91 3.02273H169.283L167.731 5.32955H166.697ZM177.769 8.07386L176.715 8.37216C176.649 8.1965 176.551 8.0258 176.422 7.86009C176.296 7.69105 176.123 7.55185 175.905 7.44247C175.686 7.3331 175.406 7.27841 175.065 7.27841C174.597 7.27841 174.208 7.38613 173.896 7.60156C173.588 7.81368 173.434 8.08381 173.434 8.41193C173.434 8.7036 173.54 8.93395 173.752 9.10298C173.964 9.27202 174.296 9.41288 174.746 9.52557L175.88 9.80398C176.563 9.9697 177.071 10.2232 177.406 10.5646C177.741 10.9027 177.908 11.3385 177.908 11.8722C177.908 12.3097 177.782 12.7008 177.53 13.0455C177.282 13.3902 176.934 13.6619 176.486 13.8608C176.039 14.0597 175.519 14.1591 174.925 14.1591C174.146 14.1591 173.502 13.9901 172.991 13.652C172.481 13.3139 172.158 12.8201 172.022 12.1705L173.136 11.892C173.242 12.303 173.442 12.6113 173.737 12.8168C174.035 13.0223 174.425 13.125 174.905 13.125C175.452 13.125 175.887 13.009 176.208 12.777C176.533 12.5417 176.695 12.2599 176.695 11.9318C176.695 11.6667 176.602 11.4446 176.417 11.2656C176.231 11.0833 175.946 10.9474 175.562 10.858L174.289 10.5597C173.59 10.3939 173.076 10.1371 172.748 9.78906C172.423 9.43774 172.261 8.99858 172.261 8.47159C172.261 8.04072 172.382 7.65956 172.623 7.32812C172.869 6.99669 173.202 6.73651 173.623 6.54758C174.047 6.35866 174.528 6.2642 175.065 6.2642C175.82 6.2642 176.414 6.42992 176.844 6.76136C177.279 7.0928 177.587 7.5303 177.769 8.07386Z" fill="#13008B"/>
</svg>
